<?xml version="1.0" standalone="no"?>
<!DOCTYPE svg PUBLIC "-//W3C//DTD SVG 20010904//EN"
 "http://www.w3.org/TR/2001/REC-SVG-20010904/DTD/svg10.dtd">
<svg version="1.0" xmlns="http://www.w3.org/2000/svg"
 width="400.000000pt" height="400.000000pt" viewBox="0 0 400.000000 400.000000"
 preserveAspectRatio="xMidYMid meet">
<metadata>
Created by potrace 1.11, written by Peter Selinger 2001-2013
</metadata>
<g transform="translate(0.000000,400.000000) scale(0.100000,-0.100000)"
fill="#000000" stroke="none">
<path d="M1 3958 c-1 -55 24 -69 31 -18 3 20 0 30 -8 30 -7 0 -15 8 -17 18 -3
9 -5 -4 -6 -30z"/>
<path d="M40 3990 c0 -5 5 -10 10 -10 6 0 10 5 10 10 0 6 -4 10 -10 10 -5 0
-10 -4 -10 -10z"/>
<path d="M128 3988 c9 -9 15 -9 24 0 9 9 7 12 -12 12 -19 0 -21 -3 -12 -12z"/>
<path d="M172 3983 c-8 -8 -11 -21 -8 -29 6 -16 -5 -19 -20 -4 -7 7 -18 0 -33
-21 -17 -22 -26 -28 -31 -19 -10 16 -30 4 -30 -18 0 -10 -9 -23 -21 -30 -14
-9 -18 -19 -14 -32 4 -12 2 -20 -4 -20 -6 0 -11 -5 -11 -11 0 -5 4 -8 9 -5 5
3 14 -1 21 -9 11 -13 10 -18 -6 -29 -24 -18 -13 -29 29 -32 18 -1 39 -4 47 -8
9 -4 20 2 28 14 12 19 11 20 -13 14 -15 -4 -25 -2 -25 4 0 6 8 13 18 15 13 4
12 5 -5 6 -12 0 -23 -4 -25 -11 -4 -12 -28 -3 -28 11 0 20 42 53 75 58 21 3
32 9 25 13 -25 15 9 20 41 5 26 -11 29 -15 14 -16 -11 -1 -24 -1 -28 0 -5 1
-6 -3 -2 -9 3 -5 17 -10 29 -10 19 0 25 7 29 33 5 32 -2 53 -10 30 -6 -17 -23
-16 -23 1 0 16 70 37 120 37 19 0 57 -1 83 -2 27 0 55 5 62 11 12 10 142 23
222 22 l23 0 -23 29 c-23 30 -50 39 -41 14 4 -9 0 -15 -7 -16 -35 -3 -65 4
-75 17 -17 21 -292 19 -316 -3 -16 -14 -20 -14 -40 -1 -20 13 -25 13 -36 1z"/>
<path d="M748 3993 c7 -3 16 -2 19 1 4 3 -2 6 -13 5 -11 0 -14 -3 -6 -6z"/>
<path d="M876 3985 c-3 -10 1 -15 14 -15 10 0 22 -5 26 -12 5 -8 0 -9 -14 -6
-12 4 -22 3 -22 -2 0 -4 -18 -7 -41 -7 -24 0 -36 3 -28 8 7 4 -7 6 -31 4 -60
-4 -57 -18 4 -21 49 -3 91 -23 50 -25 -17 0 -17 -1 3 -11 13 -6 25 -19 28 -29
3 -10 18 -19 33 -21 36 -4 44 -38 8 -38 -32 0 -40 -14 -19 -31 13 -11 17 -11
20 -1 6 17 23 15 23 -3 0 -8 -7 -15 -15 -15 -8 0 -17 -11 -21 -25 -3 -14 -10
-23 -14 -20 -5 3 -6 -4 -3 -15 3 -11 0 -27 -7 -35 -9 -10 -9 -15 -1 -15 6 0
10 -3 9 -7 0 -5 2 -16 6 -25 9 -20 -20 -68 -41 -68 -9 0 -12 -6 -8 -19 3 -10
-1 -24 -10 -31 -20 -17 -19 -36 4 -52 19 -14 19 -14 0 -27 -13 -7 -33 -10 -51
-6 -20 5 -35 2 -46 -8 -18 -16 -72 -13 -72 4 0 5 -9 9 -21 9 -12 0 -23 8 -26
20 -7 25 -7 25 -55 -2 -31 -18 -43 -20 -58 -11 -14 9 -21 9 -29 -1 -6 -7 -8
-16 -4 -19 3 -4 -5 -7 -18 -7 -18 0 -21 2 -10 9 12 8 9 11 -12 16 -15 4 -27
12 -27 17 0 6 7 8 15 5 11 -5 12 -1 5 19 -10 25 -9 25 20 19 36 -8 38 -3 5 19
-19 13 -33 14 -65 7 -29 -6 -42 -5 -50 5 -7 7 -19 10 -28 7 -13 -5 -12 -2 4
20 22 30 57 30 80 0 12 -16 13 -15 14 15 0 17 -4 32 -9 32 -5 0 -11 9 -14 20
-6 24 -20 26 -41 5 -8 -8 -18 -15 -22 -15 -4 0 -12 -7 -19 -17 -11 -15 -14
-14 -33 5 -17 17 -20 30 -17 74 2 29 6 61 10 71 9 22 -22 23 -53 1 -18 -13
-20 -19 -11 -36 8 -15 8 -27 -1 -47 l-13 -26 -9 28 c-13 38 -28 34 -28 -8 0
-19 5 -35 10 -35 6 0 10 -4 10 -9 0 -5 -9 -7 -20 -4 -25 7 -38 -38 -20 -72 9
-16 10 -29 3 -37 -12 -17 -11 -29 8 -56 11 -15 22 -20 33 -16 13 5 14 9 5 20
-14 17 -15 16 31 37 39 18 101 20 112 4 4 -6 -7 -26 -23 -44 -16 -19 -29 -38
-29 -43 0 -16 18 -20 24 -5 3 8 12 12 19 9 9 -3 24 6 36 22 23 30 42 25 23 -6
-17 -28 -14 -39 3 -16 13 18 16 18 28 4 15 -19 74 -31 83 -17 4 7 20 8 43 4
20 -4 70 -9 111 -10 43 -2 76 -7 78 -14 2 -7 18 -3 44 10 22 11 47 18 55 15
21 -8 6 -26 -22 -26 -13 0 -32 -11 -43 -25 -19 -23 -43 -34 -41 -17 6 36 -27
52 -48 22 -8 -11 -18 -18 -23 -15 -5 3 -18 0 -29 -7 -31 -19 -39 1 -11 25 17
14 19 18 7 14 -10 -4 -25 -7 -33 -7 -9 0 -12 -5 -8 -11 11 -18 -18 -29 -60
-22 -30 5 -38 3 -34 -8 3 -10 29 -15 99 -17 l94 -3 -45 -16 c-24 -8 -46 -11
-47 -6 -5 15 -83 3 -83 -13 0 -8 6 -14 13 -15 6 0 1 -5 -13 -10 -20 -8 -27 -6
-38 8 -7 10 -22 19 -34 19 -18 1 -19 -3 -15 -32 4 -21 2 -34 -5 -34 -7 0 -6
-5 1 -14 17 -20 3 -66 -20 -66 -10 0 -19 -4 -19 -10 0 -5 10 -10 23 -10 17 0
19 -2 8 -9 -12 -8 -10 -12 12 -22 15 -7 27 -16 27 -20 0 -5 13 -22 30 -39 16
-17 30 -37 30 -45 0 -17 16 -20 25 -5 11 18 25 10 25 -14 0 -13 7 -30 16 -37
14 -11 18 -10 29 5 8 10 20 16 27 14 8 -3 18 8 25 26 6 17 12 24 12 15 1 -9
10 -19 21 -22 12 -3 20 -14 20 -25 0 -14 9 -22 30 -27 16 -4 34 -4 39 -1 5 4
12 2 16 -3 3 -5 0 -13 -7 -18 -7 -4 -20 -17 -28 -27 -14 -18 -13 -19 3 -13 10
4 28 0 43 -9 15 -10 24 -12 24 -5 0 6 7 11 16 11 13 0 14 -3 5 -14 -18 -22
-60 -29 -76 -12 -24 23 -195 10 -195 -15 0 -5 10 -14 23 -19 20 -8 20 -9 2
-10 -11 0 -29 -7 -39 -15 -10 -8 -23 -12 -27 -9 -11 7 -11 -7 0 -24 4 -8 19
-12 32 -10 17 2 27 -3 34 -19 6 -14 18 -23 32 -23 26 0 31 18 8 26 -12 5 -13
10 -4 20 15 18 50 -3 41 -25 -17 -40 -38 -61 -62 -61 -26 0 -77 29 -52 30 14
0 15 9 4 28 -7 10 -17 9 -48 -7 -21 -11 -47 -22 -57 -25 -31 -10 -20 -28 13
-21 19 4 30 3 30 -4 0 -6 9 -11 20 -11 25 0 40 -48 19 -61 -7 -4 -11 -10 -8
-14 3 -3 19 7 34 22 l28 28 -8 -25 -8 -25 25 25 c14 13 24 30 21 37 -3 7 2 13
12 13 12 0 15 -5 10 -21 -7 -20 -5 -22 29 -16 34 5 35 5 25 -15 -8 -15 -8 -22
0 -28 9 -5 8 -10 -4 -20 -8 -7 -15 -23 -15 -36 0 -12 -4 -26 -10 -29 -6 -3
-10 -15 -10 -26 0 -14 6 -18 22 -16 12 2 24 9 26 15 4 14 38 16 47 2 3 -5 0
-18 -7 -29 -11 -19 -14 -19 -30 -4 -22 19 -20 22 -23 -55 -1 -61 -1 -63 21
-58 17 5 26 1 34 -15 13 -24 1 -44 -31 -52 l-21 -6 21 23 c25 26 26 36 6 36
-9 0 -19 -9 -23 -19 -4 -11 -25 -33 -47 -51 -34 -27 -36 -31 -15 -27 14 2 34
7 45 11 11 5 32 12 47 18 38 14 50 3 42 -39 -6 -32 -5 -35 10 -30 10 4 19 7
22 7 2 0 1 7 -2 15 -8 19 10 20 26 1 7 -9 24 -14 43 -12 33 3 97 35 97 48 0 4
16 10 35 14 32 6 81 54 54 54 -6 0 -9 9 -6 20 3 10 0 21 -7 24 -7 3 -7 5 2 5
6 1 12 8 12 16 0 8 5 15 11 15 5 0 7 -4 4 -10 -3 -5 -4 -14 0 -20 8 -13 35 -1
35 16 0 8 6 14 13 14 20 0 70 130 60 157 -4 11 -3 14 5 9 11 -7 15 2 15 39 0
30 -3 35 -19 35 -13 0 -14 3 -5 14 10 12 8 17 -8 25 -11 6 -27 11 -35 11 -23
0 -20 15 8 43 16 16 28 21 34 15 6 -6 17 -6 31 1 17 9 20 9 15 -3 -3 -8 -2
-22 4 -31 7 -14 11 -13 20 12 7 15 13 42 15 60 2 17 10 42 18 55 9 12 23 40
33 61 9 20 21 37 26 37 6 0 10 7 10 15 0 7 6 18 13 22 12 7 40 64 43 88 1 6 3
12 4 15 1 3 4 16 6 30 3 13 9 29 14 34 6 6 10 18 10 28 0 10 4 18 9 18 4 0 21
10 37 22 23 19 43 23 117 26 51 2 94 -1 101 -7 7 -6 30 -10 52 -9 39 2 133
-28 146 -47 4 -5 24 -10 45 -11 70 -3 143 -17 137 -25 -5 -9 0 -11 29 -13 6
-1 20 -9 29 -20 10 -10 24 -16 32 -13 9 4 18 1 22 -5 5 -8 -4 -9 -29 -5 -40 6
-60 -9 -34 -27 14 -11 13 -17 -3 -63 -18 -52 -13 -73 16 -73 9 0 10 -8 4 -29
-10 -36 3 -51 46 -51 17 0 49 -7 70 -16 37 -16 38 -17 17 -25 -13 -5 -76 -11
-140 -14 -72 -3 -123 -10 -133 -18 -8 -7 -27 -19 -42 -27 -21 -10 -28 -21 -28
-44 -1 -33 -14 -55 -45 -72 -46 -24 -100 -201 -92 -299 6 -77 0 -94 -48 -148
-28 -32 -51 -47 -76 -52 -32 -6 -39 -3 -62 25 -33 39 -80 46 -85 14 -6 -42
-49 -61 -128 -55 -41 2 -35 37 13 80 24 23 48 41 52 41 4 0 20 14 36 30 21 22
26 33 18 41 -15 15 -117 -33 -139 -66 -9 -14 -23 -25 -31 -25 -8 0 -11 -4 -8
-10 3 -5 3 -10 -2 -10 -16 -1 -71 -56 -77 -77 -6 -20 -4 -23 19 -23 25 0 25
-1 9 -25 -12 -18 -14 -37 -10 -67 3 -24 9 -87 12 -140 5 -75 10 -98 20 -98 18
0 34 41 34 88 0 64 14 69 44 16 15 -26 24 -55 21 -65 -7 -20 19 -89 33 -89 5
0 15 -11 22 -25 7 -13 17 -22 22 -19 5 3 2 16 -6 29 -15 22 -14 24 5 30 19 6
20 8 3 26 -25 28 1 34 62 15 66 -21 142 -27 148 -12 2 6 5 4 5 -5 1 -18 39
-33 86 -34 23 0 30 -5 30 -20 0 -14 -9 -21 -35 -26 -19 -4 -36 -12 -38 -18 -7
-21 -35 -42 -48 -37 -8 3 -14 -1 -14 -8 0 -10 -11 -13 -37 -10 -21 2 -64 5
-96 8 -32 3 -64 9 -70 14 -20 16 -77 25 -77 12 0 -6 7 -13 15 -16 8 -4 15 -12
15 -20 0 -8 7 -14 15 -14 8 0 29 -15 47 -33 19 -18 41 -36 51 -40 9 -3 17 -11
17 -16 0 -11 81 -8 101 4 7 5 14 4 17 -3 2 -7 24 -12 54 -12 42 0 51 -3 55
-21 5 -17 12 -20 39 -17 37 4 41 -3 24 -47 -8 -21 -13 -25 -24 -16 -10 9 -16
7 -26 -4 -8 -10 -27 -15 -49 -14 -20 1 -46 -1 -58 -5 -25 -8 -30 3 -11 22 7 7
8 12 2 12 -6 0 -19 -9 -28 -19 -24 -27 -72 -32 -92 -10 -9 10 -20 16 -25 14
-4 -3 -27 -7 -50 -9 -46 -4 -81 17 -72 42 5 12 0 14 -24 10 -25 -3 -30 -1 -25
11 4 13 1 12 -15 -2 -20 -18 -22 -18 -42 4 -12 13 -21 30 -21 39 0 9 -4 20 -9
26 -5 5 -14 27 -21 49 -21 69 -35 95 -47 90 -7 -2 -13 2 -13 10 0 8 -13 24
-30 37 -17 12 -30 30 -30 39 0 10 -6 24 -14 31 -7 8 -21 45 -31 83 -18 70 -17
77 1 301 4 50 3 52 -26 64 -25 10 -36 10 -56 0 -13 -7 -24 -19 -24 -25 0 -6
-29 -38 -65 -71 -52 -47 -73 -60 -108 -64 -23 -3 -52 -2 -65 2 -12 4 -33 3
-46 -3 -16 -8 -29 -8 -43 -1 -15 8 -22 7 -31 -9 -7 -10 -19 -19 -27 -19 -8 0
-15 -4 -15 -10 0 -5 -11 -12 -24 -16 -48 -12 -55 -31 -57 -157 -2 -65 -6 -120
-11 -123 -4 -3 -8 -16 -8 -29 0 -15 -9 -29 -22 -36 -13 -7 -27 -18 -31 -25
-12 -20 -98 -55 -118 -49 -13 4 -30 -5 -54 -29 -20 -20 -49 -38 -70 -42 -19
-3 -33 -11 -32 -18 1 -6 -8 -10 -22 -8 -20 2 -22 -1 -18 -21 8 -29 -4 -46 -30
-45 -18 2 -19 5 -11 30 6 15 14 28 18 28 12 0 19 25 11 39 -5 8 -20 -7 -42
-43 -19 -32 -39 -54 -47 -51 -8 3 -12 -7 -12 -31 0 -28 5 -36 26 -44 14 -6 36
-10 50 -10 21 0 24 3 18 25 -5 22 -3 25 19 25 14 0 27 -5 29 -10 2 -6 14 -7
34 -1 19 5 37 5 48 -1 12 -7 21 -7 28 0 6 6 25 8 43 5 22 -3 41 0 56 11 30 21
59 21 59 0 0 -13 7 -15 35 -10 28 6 35 4 35 -9 0 -37 50 -5 53 34 1 23 12 27
22 11 4 -6 15 -8 26 -5 11 4 27 -2 41 -14 12 -12 27 -21 33 -21 18 0 43 -32
47 -60 4 -34 63 -62 120 -58 l43 3 -34 11 c-53 15 -51 34 3 34 36 0 44 -3 40
-15 -4 -8 -4 -15 -1 -15 12 0 39 70 33 85 -4 11 2 15 20 15 21 0 25 -4 21 -20
-3 -11 -1 -20 5 -20 6 0 8 -9 5 -19 -3 -11 1 -22 8 -25 17 -6 25 2 25 25 0 23
45 53 67 45 24 -9 134 5 127 16 -8 12 16 98 27 98 13 0 23 -22 31 -70 15 -97
32 -157 55 -192 12 -21 23 -40 23 -44 0 -3 9 -18 21 -32 20 -26 20 -26 1 -42
-46 -36 -35 -89 39 -180 65 -81 99 -143 99 -184 0 -29 4 -36 19 -36 11 0 22 4
26 9 10 17 -7 92 -25 109 -66 63 -118 136 -123 170 -3 20 -9 54 -15 75 -9 32
-8 37 8 37 10 0 23 -15 33 -37 9 -21 43 -81 75 -133 56 -92 60 -95 100 -101
27 -3 53 -16 72 -34 25 -24 30 -36 30 -78 0 -41 5 -53 30 -77 16 -15 41 -31
56 -34 14 -4 43 -19 65 -33 39 -26 62 -26 41 0 -7 8 -9 17 -5 20 3 4 0 14 -7
22 -12 14 -15 35 -19 112 -1 12 -17 38 -37 57 -39 37 -67 84 -78 129 -3 15
-11 27 -16 27 -6 0 -10 7 -10 15 0 8 -5 15 -10 15 -15 0 -100 85 -100 99 0 6
-6 14 -14 17 -8 3 -12 12 -9 20 3 7 -2 17 -11 20 -9 3 -16 11 -16 17 0 5 8 3
18 -6 10 -10 22 -14 25 -10 4 3 7 1 7 -5 0 -7 5 -12 11 -12 7 0 22 -11 35 -25
13 -14 28 -25 34 -25 5 0 10 -4 10 -10 0 -5 18 -13 40 -16 22 -4 40 -10 40
-14 0 -5 15 -6 33 -3 17 2 68 6 111 8 43 2 85 6 92 9 8 3 11 0 7 -10 -4 -11 0
-13 18 -6 13 5 37 12 53 16 l29 7 -5 -54 c-4 -47 -2 -54 11 -49 12 4 11 0 -4
-18 l-20 -24 32 22 c17 12 35 22 40 22 13 0 63 54 63 68 0 26 83 149 126 185
24 21 44 44 44 52 0 14 69 117 140 210 48 63 110 181 110 212 0 14 2 15 9 4 7
-11 9 -11 14 0 3 9 9 4 16 -13 6 -16 18 -28 29 -28 10 0 23 -5 30 -12 13 -13
17 -100 4 -96 -7 3 -62 -48 -90 -84 -8 -10 -18 -34 -22 -55 -8 -32 -7 -35 4
-21 7 10 18 18 25 18 6 0 11 7 11 17 0 9 3 13 7 10 3 -4 12 -2 20 5 11 8 17 7
28 -8 29 -36 -8 -184 -75 -306 -13 -24 -13 -41 1 -32 11 6 47 84 53 113 1 9
15 43 31 76 20 44 29 80 32 135 5 98 5 92 -2 117 -7 22 -4 23 41 23 69 0 82
11 53 44 -12 14 -30 26 -40 26 -25 0 -59 47 -59 81 0 15 -4 30 -10 34 -5 3 0
15 11 26 17 17 28 19 60 14 33 -6 38 -4 33 9 -3 9 -11 16 -18 16 -20 0 -36 16
-41 38 -2 14 1 22 10 22 9 0 13 11 13 29 -1 36 9 52 27 44 8 -3 15 0 15 7 0 6
5 8 11 4 8 -5 10 0 6 17 -5 20 -2 24 20 26 14 0 29 7 33 13 4 7 12 10 18 6 6
-3 18 1 26 10 22 22 146 30 146 9 0 -21 -23 -68 -40 -82 -10 -9 -11 -12 -2
-13 21 0 13 -20 -8 -20 -12 0 -20 -7 -20 -17 0 -15 -2 -16 -10 -3 -7 11 -11 8
-21 -15 -7 -17 -11 -34 -10 -39 1 -4 -4 -15 -10 -23 -10 -11 -7 -19 15 -40 20
-18 26 -32 22 -47 -3 -11 -6 -26 -6 -33 0 -16 -60 -44 -81 -38 -11 4 -19 -2
-24 -17 -24 -74 -16 -77 220 -108 39 -5 84 -13 102 -19 18 -5 63 -12 100 -16
37 -4 123 -15 190 -26 68 -10 143 -19 168 -19 48 0 114 -22 155 -52 19 -14
124 -58 137 -58 2 0 3 283 3 628 0 450 -3 631 -11 639 -7 7 -26 9 -47 6 -51
-9 -38 19 15 31 l41 8 1 74 c1 61 -1 74 -14 74 -12 0 -13 4 -6 19 6 10 7 36 4
57 -10 55 -7 154 5 166 6 6 5 18 -2 34 -13 27 -20 29 -38 10 -14 -15 -86 -11
-103 6 -7 7 1 8 23 3 33 -7 41 2 20 24 -11 10 -6 11 23 6 29 -5 38 -3 43 11 6
16 8 16 26 -1 20 -18 20 -17 20 118 l0 135 -40 7 c-24 4 -40 12 -40 20 0 25
20 27 48 5 l27 -22 3 32 c2 20 -2 36 -10 41 -10 7 -10 9 0 9 6 0 12 7 12 16 0
13 -3 14 -13 5 -17 -14 -27 -4 -27 27 0 19 4 23 20 19 19 -5 20 0 20 186 0
172 -2 189 -15 171 -14 -18 -16 -18 -29 -1 -16 20 -30 23 -23 3 4 -10 -5 -16
-29 -20 -19 -4 -34 -13 -34 -20 0 -16 -42 -36 -75 -36 -18 0 -25 -7 -30 -30
-4 -17 -13 -30 -22 -30 -11 0 -13 7 -8 31 10 44 32 83 40 70 10 -17 25 -13 25
8 0 15 7 19 34 19 50 0 60 9 42 37 -12 18 -13 28 -3 48 10 22 16 24 52 19 22
-3 44 -11 48 -19 16 -27 27 0 27 68 l0 71 -122 -3 c-68 -1 -129 -7 -135 -12
-9 -6 -13 -6 -13 2 0 9 -46 11 -172 9 -167 -3 -173 -4 -184 -25 -8 -17 -13
-20 -22 -11 -8 8 -9 15 -1 25 9 11 -2 13 -59 13 -50 0 -73 -4 -82 -15 -12 -14
-15 -14 -36 0 -33 21 -444 23 -444 1 0 -8 7 -16 15 -20 8 -3 15 -12 15 -21 0
-17 11 -20 26 -6 5 5 23 11 39 13 17 2 33 7 37 13 4 5 14 3 25 -7 11 -10 29
-14 48 -11 25 4 33 0 45 -21 13 -26 30 -35 30 -16 0 6 -4 10 -10 10 -5 0 -10
5 -10 11 0 6 8 8 19 4 11 -3 22 -1 26 4 4 7 42 9 101 6 102 -4 134 -11 134
-26 0 -5 9 -9 19 -9 11 0 23 -4 26 -10 3 -5 -3 -10 -14 -10 -23 0 -28 -15 -10
-26 6 -3 14 -1 18 5 4 6 25 15 47 18 37 6 38 5 24 -13 -22 -29 -24 -30 -17
-12 4 12 2 15 -9 11 -17 -6 -17 -4 1 -39 17 -34 20 -58 5 -49 -7 4 -8 -3 -4
-22 l7 -28 -26 31 c-17 20 -24 38 -21 51 3 12 1 24 -5 27 -6 4 -13 -5 -17 -21
-3 -15 -13 -33 -22 -40 -11 -9 -12 -16 -4 -26 7 -8 7 -18 2 -27 -8 -12 -11
-12 -27 1 -20 18 -73 24 -73 9 0 -19 5 -25 19 -25 27 0 22 -23 -7 -33 -22 -8
-31 -19 -39 -50 -11 -43 -5 -52 38 -52 40 0 17 -27 -33 -39 -57 -14 -91 -40
-114 -84 -14 -26 -19 -28 -82 -28 -119 0 -122 -1 -120 -17 2 -11 -9 -18 -36
-24 -45 -10 -70 4 -61 33 4 11 2 19 -4 19 -6 0 -11 5 -11 10 0 16 30 12 36 -5
9 -23 44 -19 44 5 0 11 4 20 9 20 15 0 72 61 66 70 -10 16 -47 11 -61 -7 -12
-16 -15 -16 -24 -3 -12 18 -12 21 0 40 8 12 13 13 29 3 15 -10 22 -9 31 2 10
13 8 15 -14 15 -14 0 -26 4 -26 9 0 16 38 23 60 11 25 -13 35 -8 27 15 -4 8
-18 15 -32 15 -14 0 -25 4 -25 9 0 5 -3 18 -7 28 -6 15 -5 16 9 5 13 -10 18
-10 24 -1 4 7 2 15 -4 17 -19 6 -14 30 9 37 13 4 18 12 15 22 -3 8 -6 19 -6
24 0 17 -25 9 -49 -16 -35 -37 -49 -32 -48 18 1 45 1 45 -68 34 -5 -1 -9 5
-10 13 0 14 -6 16 -35 12 -5 -1 -10 -12 -10 -23 0 -18 2 -19 15 -9 12 10 15
10 15 -3 0 -9 12 -18 29 -22 38 -8 50 -35 16 -35 -13 0 -27 5 -30 10 -10 15
-25 2 -26 -23 -1 -20 -2 -21 -6 -2 -3 11 -14 30 -26 43 -11 12 -16 22 -11 22
23 1 -24 20 -48 20 -22 0 -28 5 -28 23 0 13 6 29 13 36 6 8 8 11 2 9 -5 -3
-16 0 -22 8 -15 16 -9 20 40 23 28 2 37 -1 37 -13 0 -21 58 -22 66 -1 3 8 14
17 25 20 23 8 25 25 4 25 -11 0 -14 7 -9 24 l6 24 -166 1 c-156 2 -166 0 -178
-19 -17 -26 -32 -26 -18 0 10 19 8 20 -45 20 -51 0 -72 -11 -42 -23 6 -3 2 -6
-10 -6 -14 -1 -23 5 -23 14 0 13 -29 15 -195 15 l-196 -1 -9 -24 c-5 -14 -17
-25 -25 -25 -9 0 -14 4 -11 9 3 5 -7 11 -24 13 -16 2 -27 1 -24 -4 3 -4 1 -8
-5 -8 -5 0 -13 9 -16 20 -5 17 -15 20 -62 20 -49 0 -54 -2 -43 -16 11 -13 10
-16 -8 -20 -12 -4 -19 -11 -15 -20 3 -8 -1 -14 -10 -14 -9 0 -21 -8 -27 -17
-9 -17 -11 -16 -29 4 -10 12 -21 19 -25 16 -3 -3 0 -13 6 -21 10 -11 9 -17 -6
-27 -10 -8 -15 -18 -11 -24 3 -6 -2 -11 -12 -11 -25 -1 -61 -31 -65 -55 -2
-15 2 -19 18 -18 18 2 23 -5 28 -38 4 -22 4 -44 1 -50 -4 -5 3 -23 15 -39 l21
-30 -21 -30 c-12 -16 -20 -30 -18 -31 32 -7 57 -6 52 2 -3 6 1 18 8 27 23 26
18 164 -5 190 -23 25 -14 30 50 28 34 -1 54 2 57 10 3 7 14 10 25 7 12 -3 21
-1 21 6 0 6 12 11 26 11 16 0 23 4 18 11 -3 6 -17 9 -30 6 -16 -3 -24 0 -24 9
0 8 11 13 28 13 112 -1 256 13 279 28 32 21 120 29 104 9 -9 -10 16 -14 128
-19 80 -4 152 -2 172 3 58 17 131 12 159 -10 16 -13 19 -18 7 -14 -16 6 -17 3
-11 -22 l7 -28 -25 16 c-19 12 -28 14 -37 5 -8 -8 -15 -6 -26 9 -15 19 -16 19
-13 -1 2 -14 -2 -19 -12 -16 -33 9 -116 7 -128 -2 -10 -8 -8 -12 9 -21 13 -6
24 -17 27 -23 6 -20 -22 -15 -46 7 -12 11 -25 20 -31 20 -16 0 -20 -28 -5 -34
18 -7 18 -32 -1 -40 -8 -3 -15 -12 -15 -20 0 -15 -27 -29 -40 -21 -5 3 -11 1
-15 -5 -11 -17 -23 -11 -39 21 l-15 30 27 -5 c29 -6 67 11 45 21 -7 2 -13 13
-13 24 0 25 -13 24 -48 -6 -17 -14 -35 -25 -42 -25 -7 0 -21 -9 -31 -21 -10
-12 -23 -18 -30 -13 -7 4 -9 3 -6 -3 4 -6 -5 -20 -18 -33 -24 -23 -26 -39 -10
-90 5 -17 2 -20 -27 -20 -35 0 -64 -7 -163 -35 -33 -9 -80 -22 -105 -29 -25
-6 -62 -21 -83 -34 -49 -31 -58 -26 -42 22 13 36 6 86 -11 86 -3 0 -4 -7 0
-15 3 -8 1 -15 -4 -15 -6 0 -10 -14 -10 -30 0 -35 -23 -49 -50 -32 -14 8 -21
8 -29 -2 -6 -7 -29 -18 -51 -25 -23 -7 -40 -18 -40 -26 0 -8 -4 -15 -10 -15
-18 0 -10 -16 15 -30 13 -7 27 -21 30 -30 8 -25 -4 -50 -21 -43 -8 3 -14 0
-14 -6 0 -6 8 -11 18 -12 11 0 7 -5 -13 -14 -37 -16 -61 -10 -40 12 20 19 19
20 -12 19 -21 -1 -27 -6 -25 -18 2 -11 -3 -18 -13 -18 -9 0 -14 4 -10 9 3 5 1
12 -4 15 -19 12 -76 14 -90 3 -10 -9 -13 -7 -10 8 3 12 14 21 27 23 12 2 22
10 22 18 0 8 7 14 15 14 8 0 15 4 15 9 0 5 13 4 29 -2 45 -17 82 23 48 52 -10
8 -17 7 -25 -1 -9 -9 -12 -9 -12 0 0 7 5 12 10 12 13 0 13 27 1 32 -6 2 -6 21
-1 48 5 27 4 50 -1 56 -5 7 -9 16 -8 20 6 26 -43 90 -60 79 -7 -3 -11 2 -11
14 0 12 -5 21 -10 21 -6 0 -5 8 2 20 11 18 14 18 24 5 25 -34 57 -7 67 54 1 9
6 21 9 26 4 6 2 17 -3 25 -8 12 -13 10 -30 -12 -24 -33 -39 -36 -39 -8 0 17
-4 19 -26 14 -24 -6 -25 -5 -16 13 6 11 8 29 5 41 -7 27 1 27 52 2 45 -22 65
-25 65 -10 0 6 -7 10 -16 10 -13 0 -12 5 7 24 12 13 23 35 24 50 l1 26 -113 0
c-81 0 -113 -3 -113 -12 0 -9 -3 -9 -12 0 -16 16 -28 15 -28 -2 0 -8 10 -17
23 -19 l22 -4 -23 -2 c-12 0 -33 -8 -46 -16 -22 -14 -25 -14 -41 1 -12 12 -19
14 -28 5 -13 -13 -57 -15 -57 -2 0 13 17 23 22 14 1 -5 13 2 25 15 l22 22 -63
0 c-48 0 -65 -4 -70 -15z m386 -17 c-7 -7 -12 -8 -12 -2 0 14 12 26 19 19 2
-3 -1 -11 -7 -17z m458 7 c0 -8 -4 -15 -10 -15 -5 0 -10 7 -10 15 0 8 5 15 10
15 6 0 10 -7 10 -15z m1200 5 c0 -5 -4 -10 -10 -10 -5 0 -10 5 -10 10 0 6 5
10 10 10 6 0 10 -4 10 -10z m140 -5 c-7 -8 -16 -12 -21 -9 -13 8 -1 24 18 24
13 0 13 -3 3 -15z m426 -16 c-3 -17 -6 -40 -6 -51 0 -11 -5 -16 -10 -13 -8 5
-8 61 -1 93 1 1 6 2 12 2 8 0 9 -11 5 -31z m-1801 11 c-7 -11 -5 -11 35 -16
14 -2 44 -8 68 -14 49 -12 62 -7 62 21 0 10 5 19 10 19 14 0 12 -47 -2 -56 -7
-4 -41 -10 -75 -12 -56 -3 -63 -1 -64 15 -1 12 -3 10 -8 -7 -6 -23 -11 -25
-60 -22 -52 4 -53 4 -51 -25 3 -44 -2 -52 -9 -13 -8 44 6 60 53 60 20 0 36 5
36 10 0 6 -7 10 -17 10 -14 0 -14 2 2 20 19 21 30 27 20 10z m509 -15 c-4 -8
-10 -15 -15 -15 -5 0 -9 7 -9 15 0 8 7 15 15 15 9 0 12 -6 9 -15z m420 9 c25
-10 8 -24 -27 -24 -30 1 -31 1 -13 15 23 17 20 17 40 9z m1051 -4 c-3 -5 -13
-10 -21 -10 -8 0 -14 -4 -14 -10 0 -5 -4 -10 -10 -10 -19 0 -10 21 13 30 30
12 39 12 32 0z m-2350 -10 c3 -5 -1 -10 -10 -10 -9 0 -13 5 -10 10 3 6 8 10
10 10 2 0 7 -4 10 -10z m845 -6 c0 -8 -5 -12 -10 -9 -6 4 -8 11 -5 16 9 14 15
11 15 -7z m85 5 c10 -15 -1 -23 -20 -15 -9 3 -13 10 -10 16 8 13 22 13 30 -1z
m-1045 -9 c0 -5 -4 -10 -10 -10 -5 0 -10 5 -10 10 0 6 5 10 10 10 6 0 10 -4
10 -10z m-55 -10 c3 -5 1 -10 -4 -10 -6 0 -11 5 -11 10 0 6 2 10 4 10 3 0 8
-4 11 -10z m1310 0 c-3 -5 -10 -10 -16 -10 -5 0 -9 5 -9 10 0 6 7 10 16 10 8
0 12 -4 9 -10z m1210 0 c3 -5 -1 -10 -9 -10 -9 0 -16 5 -16 10 0 6 4 10 9 10
6 0 13 -4 16 -10z m-2600 -19 c9 -15 -28 -31 -46 -20 -7 5 -31 9 -52 9 -23 0
-36 4 -32 10 8 13 122 13 130 1z m55 -11 c0 -5 9 -10 19 -10 50 0 71 -32 29
-44 -55 -14 -82 -4 -56 22 8 8 8 15 -2 27 -8 10 -9 15 -1 15 6 0 11 -4 11 -10z
m90 0 c0 -5 -4 -10 -9 -10 -6 0 -13 5 -16 10 -3 6 1 10 9 10 9 0 16 -4 16 -10z
m2390 0 c8 -5 11 -10 5 -10 -5 0 -4 -4 4 -9 18 -11 5 -31 -20 -31 -10 0 -19
-7 -19 -15 0 -8 -5 -15 -11 -15 -6 0 -20 -11 -31 -25 -11 -14 -25 -25 -33 -25
-16 0 -30 33 -16 38 6 2 11 10 11 17 0 7 7 16 16 19 8 3 13 10 9 15 -3 6 3 15
14 20 25 14 41 14 21 0 -12 -8 -11 -9 5 -7 12 2 19 10 17 21 -3 19 6 21 28 7z
m234 -9 c29 -11 5 -22 -51 -23 -26 0 -53 -6 -60 -13 -15 -15 -64 -6 -71 13 -5
15 14 16 23 1 5 -7 12 -5 23 4 26 23 99 33 136 18z m-1450 -67 c20 -8 11 -24
-15 -24 -19 0 -25 11 -12 23 8 8 8 8 27 1z m111 -4 c3 -5 1 -10 -4 -10 -6 0
-11 5 -11 10 0 6 2 10 4 10 3 0 8 -4 11 -10z m-1359 -9 c-4 -5 -1 -11 6 -13 7
-3 9 -11 4 -24 -8 -19 -8 -19 -16 1 -12 28 -12 45 1 45 5 0 8 -4 5 -9z m174
-22 c0 -6 -4 -7 -10 -4 -5 3 -10 11 -10 16 0 6 5 7 10 4 6 -3 10 -11 10 -16z
m1232 -4 c14 2 36 6 48 10 16 5 21 3 18 -6 -5 -15 -38 -26 -79 -28 -19 -1 -28
5 -32 20 -4 14 -2 17 6 11 7 -6 24 -9 39 -7z m908 -35 c0 -11 -4 -20 -9 -20
-5 0 -16 -3 -25 -6 -13 -5 -13 -2 -3 20 14 31 37 34 37 6z m240 13 c-1 -19
-19 -35 -30 -28 -10 6 -9 11 5 22 22 15 25 16 25 6z m-1057 -18 c9 -8 13 -24
10 -35 -3 -11 1 -27 8 -36 10 -12 10 -17 0 -23 -13 -8 -6 -56 12 -78 7 -9 5
-13 -7 -13 -9 0 -16 -4 -16 -10 0 -5 8 -10 19 -10 10 0 24 -7 31 -15 14 -17
14 -17 -15 -33 -11 -6 -15 -12 -8 -12 7 0 17 -9 23 -20 16 -29 -15 -54 -71
-58 -37 -2 -49 2 -66 22 -17 19 -19 26 -8 30 8 3 17 1 20 -4 11 -18 32 -10 43
16 14 30 6 74 -16 92 -23 17 -17 82 8 99 26 18 25 27 -5 43 -26 14 -34 45 -12
53 22 9 35 7 50 -8z m882 -25 c3 -5 1 -10 -4 -10 -6 0 -11 5 -11 10 0 6 2 10
4 10 3 0 8 -4 11 -10z m-1161 -42 c-9 -14 -31 -9 -38 8 -10 25 3 35 24 17 10
-9 17 -20 14 -25z m-1432 10 c-7 -7 -12 -20 -12 -30 0 -10 -4 -18 -9 -18 -15
0 -26 23 -13 28 6 2 8 10 5 18 -3 10 2 14 18 14 18 0 20 -3 11 -12z m2568 8
c0 -3 -4 -8 -10 -11 -5 -3 -10 -1 -10 4 0 6 5 11 10 11 6 0 10 -2 10 -4z
m-2240 -37 c0 -4 -7 -6 -15 -3 -8 4 -15 10 -15 15 0 4 7 6 15 3 8 -4 15 -10
15 -15z m2083 14 c-7 -2 -19 -2 -25 0 -7 3 -2 5 12 5 14 0 19 -2 13 -5z m115
-28 c0 -29 -17 -44 -28 -25 -4 7 -1 21 8 31 20 24 20 24 20 -6z m126 -10 c3
-8 1 -15 -4 -15 -6 0 -10 7 -10 15 0 8 2 15 4 15 2 0 6 -7 10 -15z m296 -2 c0
-14 -19 -38 -25 -32 -8 8 5 39 16 39 5 0 9 -3 9 -7z m-491 -69 c-4 -12 -3 -26
3 -32 7 -7 4 -14 -11 -21 -24 -13 -25 -7 -15 73 6 44 8 45 19 24 7 -13 8 -32
4 -44z m-1124 46 c3 -5 1 -10 -4 -10 -26 0 -8 -20 23 -26 19 -3 37 -12 40 -20
7 -19 -23 -18 -48 1 -11 8 -29 12 -39 9 -14 -4 -18 -2 -13 7 3 8 9 22 12 32 7
19 20 22 29 7z m1550 0 c-3 -5 -10 -10 -16 -10 -5 0 -9 5 -9 10 0 6 7 10 16
10 8 0 12 -4 9 -10z m-375 -46 c0 -16 -16 -19 -25 -4 -8 13 4 32 16 25 5 -4 9
-13 9 -21z m-3275 -3 c-3 -6 -11 -11 -16 -11 -5 0 -4 6 3 14 14 16 24 13 13
-3z m771 -18 c-3 -8 -6 -17 -6 -19 0 -2 -9 -4 -20 -4 -24 0 -27 15 -4 24 8 3
12 10 9 16 -3 6 1 7 10 4 9 -4 14 -13 11 -21z m2334 -2 c0 -21 -22 -33 -45
-25 -12 5 -10 10 8 25 28 24 37 24 37 0z m-3093 -7 c-3 -3 -12 -4 -19 -1 -8 3
-5 6 6 6 11 1 17 -2 13 -5z m3150 -29 c9 -20 8 -25 -3 -25 -8 0 -11 -6 -8 -15
5 -12 -3 -13 -40 -9 -28 4 -52 2 -60 -5 -10 -9 -15 -9 -18 -1 -2 8 -11 8 -28
1 -14 -5 -19 -10 -12 -10 7 -1 10 -6 7 -11 -5 -8 -11 -8 -20 0 -8 7 -15 7 -19
1 -3 -5 -15 -7 -26 -4 -14 4 -20 0 -20 -11 0 -9 -7 -16 -16 -16 -18 0 -15 6
34 60 46 52 71 67 83 49 5 -9 0 -17 -19 -25 -25 -11 -25 -12 -5 -13 12 -1 24
3 28 8 3 5 19 12 36 16 17 4 42 13 57 21 35 18 35 18 49 -11z m314 -35 c10 0
19 -7 19 -15 0 -18 7 -18 49 -4 42 15 59 0 31 -26 -17 -15 -25 -17 -40 -8 -14
10 -21 9 -30 -2 -17 -21 -46 -19 -70 5 -11 11 -25 20 -31 20 -5 0 -8 4 -4 9 3
6 -2 14 -11 19 -14 8 -14 12 -3 30 l13 21 29 -25 c16 -13 37 -24 48 -24z
m-2457 -15 c28 -22 32 -23 58 -9 15 8 28 13 29 12 0 -2 2 -13 3 -25 2 -21 -2
-23 -43 -23 -29 0 -41 -3 -33 -9 16 -10 13 -42 -4 -48 -7 -2 -14 8 -18 22 -4
16 -13 25 -27 25 -19 0 -19 -1 -5 -16 21 -21 20 -37 -4 -52 -12 -7 -20 -8 -20
-2 0 14 -16 12 -33 -4 -17 -18 -38 -2 -30 23 3 9 -1 7 -11 -6 -10 -14 -23 -19
-36 -16 -23 6 -24 12 -6 36 8 11 20 15 31 11 13 -5 16 -2 13 13 -2 14 11 32
40 57 24 20 49 36 55 36 7 -1 25 -12 41 -25z m2190 -10 c4 -11 -2 -15 -21 -15
-26 0 -26 1 -7 15 10 8 20 15 20 15 1 0 4 -7 8 -15z m83 -7 c-3 -8 -6 -5 -6 6
-1 11 2 17 5 13 3 -3 4 -12 1 -19z m-1897 2 c0 -5 -4 -10 -10 -10 -5 0 -10 5
-10 10 0 6 5 10 10 10 6 0 10 -4 10 -10z m-1230 -14 c0 -11 -19 -15 -25 -6 -3
5 1 10 9 10 9 0 16 -2 16 -4z m2909 -82 c-17 -20 -32 -17 -26 6 3 12 1 17 -5
14 -5 -3 -8 2 -6 12 2 11 12 24 23 29 18 10 20 7 23 -18 2 -15 -2 -35 -9 -43z
m-2309 56 c0 -5 -4 -10 -10 -10 -5 0 -10 5 -10 10 0 6 5 10 10 10 6 0 10 -4
10 -10z m1975 -22 c-16 -4 -31 -5 -33 -3 -8 7 42 23 53 17 5 -3 -4 -9 -20 -14z
m1020 12 c3 -5 2 -10 -4 -10 -5 0 -13 5 -16 10 -3 6 -2 10 4 10 5 0 13 -4 16
-10z m-3035 -10 c0 -13 -20 -13 -40 0 -12 8 -9 10 13 10 15 0 27 -4 27 -10z
m2429 -7 c6 -10 11 -14 11 -9 0 5 6 3 14 -3 11 -9 24 -8 55 3 23 7 43 10 46 6
7 -11 -42 -28 -97 -34 -37 -4 -48 -2 -48 8 0 8 -3 21 -6 30 -8 22 12 20 25 -1z
m211 -3 c0 -5 -4 -10 -9 -10 -6 0 -13 5 -16 10 -3 6 1 10 9 10 9 0 16 -4 16
-10z m-680 -10 c0 -6 -8 -14 -17 -17 -10 -4 -20 -9 -23 -12 -12 -15 -52 -31
-60 -26 -22 14 -9 35 21 35 17 0 37 7 45 15 18 17 34 20 34 5z m286 -11 c11
-9 29 -20 42 -23 37 -12 28 -38 -12 -35 -19 2 -38 0 -42 -3 -4 -4 -16 -3 -26
3 -26 14 -47 -3 -30 -24 7 -8 10 -16 8 -18 -2 -2 88 -4 200 -4 168 0 203 -2
199 -14 -3 -9 0 -11 10 -8 20 8 27 -7 16 -35 -7 -17 -10 -18 -10 -5 -1 9 -6
17 -12 17 -5 0 -8 -4 -4 -9 3 -5 1 -12 -5 -16 -9 -6 -14 14 -11 43 1 6 -8 12
-20 12 -15 0 -19 -5 -15 -15 3 -9 0 -15 -9 -15 -8 0 -15 -7 -15 -16 0 -11 -6
-14 -20 -9 -13 4 -22 1 -26 -9 -3 -9 -10 -13 -15 -10 -5 3 -14 -7 -20 -23 -7
-19 -7 -29 0 -31 16 -5 13 -29 -5 -36 -30 -12 -36 -6 -32 30 4 33 1 37 -26 49
-72 29 -93 33 -125 19 -28 -12 -32 -11 -42 8 -8 16 -8 22 2 29 7 4 10 11 7 14
-4 4 -16 0 -28 -8 -14 -9 -17 -17 -11 -22 6 -3 9 -11 6 -16 -7 -11 -55 -1 -72
15 -15 15 1 56 24 57 23 1 -35 21 -60 20 -10 0 -16 6 -14 12 2 7 20 12 40 12
39 1 73 23 48 32 -20 8 35 49 64 48 13 0 31 -7 41 -16z m-420 1 c8 0 11 -6 8
-15 -5 -13 -44 -22 -44 -11 0 2 -3 12 -7 22 -5 14 -3 16 11 11 10 -4 24 -7 32
-7z m209 -29 c3 -22 0 -31 -10 -31 -8 0 -15 -9 -15 -21 0 -15 5 -19 19 -14 10
3 24 -1 31 -10 7 -8 17 -12 23 -8 6 3 7 1 3 -5 -9 -15 -43 -16 -51 -2 -3 6
-25 10 -48 11 -41 1 -41 1 -14 12 18 7 27 18 27 34 0 24 -19 30 -37 12 -6 -6
-21 -8 -34 -4 -23 8 -23 8 5 22 16 8 36 13 46 10 10 -2 23 4 31 14 16 22 19
20 24 -20z m-2095 4 c0 -18 -5 -25 -20 -25 -11 0 -20 5 -20 10 0 6 -7 10 -15
10 -23 0 -18 18 8 23 43 8 47 7 47 -18z m110 15 c0 -6 -9 -10 -19 -10 -11 0
-27 -3 -37 -7 -16 -6 -16 -5 -4 8 16 17 60 24 60 9z m2350 -10 c0 -11 5 -20
10 -20 6 0 10 -4 10 -10 0 -13 -70 -4 -84 10 -8 8 -4 12 12 16 12 4 22 10 22
15 0 5 7 9 15 9 8 0 15 -9 15 -20z m150 -15 c-14 -17 -30 -20 -30 -6 0 5 8 12
18 14 9 3 19 5 21 6 2 0 -2 -6 -9 -14z m-62 -4 c11 -7 11 -9 -1 -14 -9 -3 -21
1 -27 9 -10 11 -10 14 1 14 8 0 20 -4 27 -9z m254 -9 c-21 -21 -72 -27 -72 -9
0 20 4 22 49 24 38 2 40 2 23 -15z m88 -13 c0 -5 -9 -9 -20 -9 -19 0 -26 11
-14 23 8 8 34 -3 34 -14z m-2533 5 c-3 -3 -12 -4 -19 -1 -8 3 -5 6 6 6 11 1
17 -2 13 -5z m-319 -24 l27 -7 -28 -14 c-26 -12 -27 -14 -9 -20 11 -4 36 -4
55 1 45 10 55 1 20 -17 -29 -15 -113 -8 -113 9 0 5 -4 6 -10 3 -5 -3 -10 -1
-10 4 0 6 -6 11 -12 11 -15 0 -21 -57 -7 -65 11 -7 2 -25 -13 -25 -5 0 -7 7
-4 16 5 14 1 15 -28 10 -39 -8 -58 9 -24 20 13 4 28 7 33 6 6 -1 11 10 10 25
0 20 -6 29 -20 31 -34 5 -46 12 -41 20 6 10 132 4 174 -8z m132 10 c0 -5 -7
-10 -16 -10 -8 0 -12 5 -9 10 3 6 10 10 16 10 5 0 9 -4 9 -10z m287 3 c-8 -8
42 -35 53 -28 5 3 16 2 25 -1 27 -11 -5 -25 -41 -18 -35 6 -52 -9 -34 -31 9
-11 7 -12 -9 -8 -12 3 -21 9 -21 14 0 5 -7 9 -15 9 -8 0 -15 -4 -15 -10 0 -5
5 -10 10 -10 6 0 10 -4 10 -10 0 -5 -14 -10 -31 -10 -27 0 -30 2 -19 15 9 10
9 15 1 15 -6 0 -11 7 -11 16 0 9 -7 14 -17 12 -11 -2 -17 -11 -15 -21 4 -24
-14 -21 -32 5 -23 32 -5 45 60 45 30 0 60 5 67 12 6 6 18 11 26 11 8 0 11 -3
8 -7z m1958 -3 c3 -5 -1 -10 -10 -10 -9 0 -13 5 -10 10 3 6 8 10 10 10 2 0 7
-4 10 -10z m665 -9 c0 -6 -4 -13 -10 -16 -5 -3 -10 1 -10 9 0 9 5 16 10 16 6
0 10 -4 10 -9z m-2825 -11 c-3 -5 -17 -10 -31 -10 -13 0 -24 5 -24 10 0 6 14
10 31 10 17 0 28 -4 24 -10z m1720 -9 c-2 -4 -14 -7 -27 -5 -34 4 -35 5 -13
13 22 9 48 3 40 -8z m-1745 -30 c0 -5 -6 -13 -13 -19 -10 -8 -13 -6 -14 9 -1
10 5 19 13 19 8 0 14 -4 14 -9z m2498 -24 c2 -12 -1 -15 -12 -11 -19 7 -22 38
-3 32 6 -3 13 -12 15 -21z m284 0 c18 -35 -25 -48 -67 -21 -14 9 -33 13 -45 9
-11 -4 -20 -2 -20 4 0 6 -7 11 -16 11 -8 0 -12 4 -9 10 3 5 38 9 76 8 58 -2
73 -6 81 -21z m-877 -30 c19 -4 18 -5 -2 -6 -27 -1 -32 -9 -41 -62 -13 -74
-55 -78 -72 -8 -4 19 -11 41 -14 50 -10 24 73 63 94 44 8 -7 24 -15 35 -18z
m-1945 19 c0 -2 -7 -6 -15 -10 -8 -3 -15 -1 -15 4 0 6 7 10 15 10 8 0 15 -2
15 -4z m2753 -24 c17 -7 16 -9 -3 -30 -28 -30 -37 -28 -32 8 5 32 6 33 35 22z
m134 -4 c-2 -7 -18 -13 -35 -13 -38 -1 -40 2 -9 15 32 13 49 12 44 -2z m-897
-48 c0 -5 -7 -10 -15 -10 -8 0 -15 5 -15 10 0 6 7 10 15 10 8 0 15 -4 15 -10z
m130 -5 c0 -16 -27 -32 -37 -21 -7 7 16 36 28 36 5 0 9 -7 9 -15z m720 -10 c0
-8 -7 -15 -15 -15 -13 0 -14 3 -3 15 16 18 18 18 18 0z m-50 -20 c-7 -9 -15
-13 -17 -11 -7 7 7 26 19 26 6 0 6 -6 -2 -15z m-535 -45 c3 -5 1 -10 -4 -10
-6 0 -11 5 -11 10 0 6 2 10 4 10 3 0 8 -4 11 -10z m-2187 -48 c22 -23 28 -54
8 -46 -8 3 -17 0 -21 -6 -6 -9 -10 -9 -16 1 -6 10 -9 11 -9 2 0 -18 -27 -16
-34 2 -5 14 29 62 47 64 4 1 15 -7 25 -17z m82 -12 c0 -5 -9 -19 -20 -30 -22
-22 -27 -11 -8 20 14 21 28 26 28 10z m1980 -15 c0 -8 -4 -15 -10 -15 -5 0
-10 7 -10 15 0 8 5 15 10 15 6 0 10 -7 10 -15z m428 3 c-3 -7 -11 -13 -18 -13
-7 0 -15 6 -17 13 -3 7 4 12 17 12 13 0 20 -5 18 -12z m250 -20 c9 -9 15 -10
20 -2 10 16 54 12 60 -4 2 -7 -5 -16 -17 -19 -12 -3 -21 -9 -21 -13 0 -17 -54
-90 -71 -95 -10 -3 -21 -14 -24 -24 -8 -25 -76 -43 -93 -25 -20 21 -14 30 28
44 22 7 40 19 40 27 0 8 5 11 10 8 6 -3 10 -2 10 3 0 6 -7 12 -15 16 -18 7
-19 35 -1 59 18 24 23 22 31 -13 8 -38 23 -47 43 -26 15 14 14 18 -13 46 -19
20 -24 30 -14 30 8 0 21 -6 27 -12z m-2884 -13 c3 -10 -1 -15 -14 -15 -20 0
-33 13 -23 24 11 11 31 6 37 -9z m-34 -31 c14 -15 12 -16 -16 -11 -20 4 -39 1
-50 -8 -11 -8 -25 -15 -31 -15 -13 0 -18 42 -6 53 11 12 87 -3 103 -19z m2168
-13 c-15 -5 -19 4 -11 24 6 18 7 18 13 -1 4 -10 3 -21 -2 -23z m490 18 c-2 -6
-8 -10 -13 -10 -5 0 -11 4 -13 10 -2 6 4 11 13 11 9 0 15 -5 13 -11z m132 -5
c0 -8 -4 -12 -10 -9 -5 3 -10 10 -10 16 0 5 5 9 10 9 6 0 10 -7 10 -16z
m-2650 -4 c0 -5 -5 -10 -11 -10 -5 0 -7 5 -4 10 3 6 8 10 11 10 2 0 4 -4 4
-10z m2130 -5 c10 -13 9 -15 -11 -15 -24 -1 -24 -1 -4 -15 11 -8 26 -19 33
-25 9 -8 14 -6 19 7 9 23 23 33 51 33 13 0 22 -6 22 -15 0 -8 9 -15 20 -15 11
0 20 5 20 12 0 9 3 9 12 0 10 -10 10 -15 1 -20 -7 -4 -10 -17 -7 -28 4 -16 12
-19 39 -16 19 2 41 12 50 22 16 18 55 17 55 -1 0 -16 39 -9 49 9 10 15 10 15
11 -4 0 -17 6 -20 42 -20 23 0 43 -5 45 -11 6 -16 -50 -33 -71 -21 -11 6 -22
6 -31 -2 -10 -8 -19 -8 -34 -1 -13 8 -22 8 -26 1 -4 -6 -26 -8 -56 -4 l-49 7
0 -42 c0 -44 0 -44 25 -35 12 5 13 9 5 14 -24 15 1 28 43 24 23 -3 54 -7 70
-8 15 -2 46 -4 70 -5 39 -2 41 -3 23 -16 -16 -12 -17 -15 -4 -15 9 0 18 7 21
15 5 10 19 13 54 10 26 -2 69 -4 94 -4 59 -1 100 -34 75 -59 -14 -15 -17 -15
-28 0 -20 24 -46 29 -56 11 -12 -21 -31 -8 -25 17 3 11 1 20 -5 20 -6 0 -12
-12 -14 -27 -4 -33 -24 -41 -31 -13 -5 21 -50 29 -62 10 -3 -6 4 -10 17 -10
22 -1 22 -1 5 -14 -10 -8 -19 -20 -21 -28 -1 -7 -5 -18 -9 -25 -9 -15 9 -27
30 -19 12 5 13 9 4 20 -9 10 -8 15 4 20 8 3 15 1 15 -4 0 -14 44 -12 58 2 6 6
15 8 19 4 12 -12 -12 -41 -38 -44 -13 -2 -28 -8 -34 -14 -7 -7 -2 -9 15 -5 28
6 61 -4 63 -18 1 -6 8 -9 15 -7 6 2 12 -4 12 -12 0 -9 11 -18 25 -22 14 -3 25
-10 25 -15 0 -5 -12 -6 -27 -3 -21 6 -25 4 -20 -8 3 -9 1 -20 -5 -26 -6 -6 -7
-15 -4 -21 9 -14 43 -14 51 -1 10 16 28 12 21 -5 -4 -10 1 -15 14 -15 11 0 20
5 20 11 0 6 17 9 43 7 38 -3 42 -6 42 -31 1 -22 -3 -26 -18 -21 -10 3 -28 -1
-41 -10 -17 -11 -26 -12 -34 -4 -7 7 -20 12 -29 13 -10 1 -22 3 -28 5 -5 1
-23 2 -40 1 -21 -1 -26 -4 -17 -10 10 -6 7 -10 -12 -13 -14 -3 -29 -2 -33 2
-17 15 -81 21 -90 8 -8 -12 -47 -38 -58 -38 -3 0 -5 7 -5 16 0 21 -27 47 -41
38 -9 -5 -10 1 -5 22 12 52 11 58 -6 62 -13 2 -16 -1 -12 -12 7 -19 -16 -22
-34 -4 -9 9 -12 7 -12 -9 0 -12 5 -23 12 -25 7 -3 9 -14 4 -31 -5 -20 -13 -27
-31 -27 -14 0 -25 -4 -25 -10 0 -5 -4 -10 -10 -10 -16 0 -11 28 6 38 13 7 14
11 4 17 -8 5 -18 2 -25 -8 -7 -9 -15 -14 -18 -10 -10 9 -8 63 3 104 10 34 12
36 57 36 31 0 48 4 51 13 8 23 79 89 106 100 26 10 36 40 14 40 -25 0 -113
-36 -111 -45 3 -20 -20 -35 -54 -35 l-34 0 21 31 c26 36 20 47 -16 30 -32 -14
-42 -8 -23 15 13 16 12 16 -9 5 -13 -7 -28 -11 -35 -8 -6 2 -18 -2 -25 -9 -15
-16 0 -54 21 -54 7 0 13 -14 14 -30 1 -17 -2 -28 -7 -25 -5 3 -11 -4 -15 -15
-5 -16 -12 -19 -32 -14 -17 5 -24 3 -19 -4 9 -14 -7 -23 -24 -12 -21 13 -41 0
-35 -21 5 -13 1 -19 -10 -19 -13 0 -16 -6 -11 -25 5 -18 2 -25 -9 -25 -20 0
-19 -14 1 -35 13 -12 14 -19 5 -28 -14 -14 -37 15 -46 60 -7 38 -31 49 -56 27
-10 -9 -26 -14 -36 -11 -92 29 -128 35 -140 25 -15 -12 -47 -3 -38 11 3 6 -2
14 -11 19 -14 8 -16 21 -12 76 3 36 10 72 16 79 5 6 14 32 19 57 7 37 13 46
33 48 34 5 52 23 20 20 -19 -2 -25 2 -25 17 0 11 -4 26 -9 33 -14 23 7 33 42
21 36 -12 67 3 58 27 -8 20 11 27 35 14 16 -9 24 -8 38 4 10 9 26 13 39 9 18
-4 22 -1 22 16 0 25 31 29 50 6z m720 -5 c0 -5 -4 -10 -10 -10 -5 0 -10 5 -10
10 0 6 5 10 10 10 6 0 10 -4 10 -10z m-2800 -55 c-6 -8 -26 -15 -43 -17 -28
-3 -32 -7 -32 -31 -1 -23 -7 -32 -34 -43 -39 -17 -41 -17 -41 -5 0 5 13 14 30
19 20 7 28 16 24 25 -3 8 0 18 5 22 6 3 9 11 6 16 -11 17 3 24 50 26 38 1 44
-1 35 -12z m-110 -4 c0 -6 -4 -13 -10 -16 -5 -3 -10 1 -10 9 0 9 5 16 10 16 6
0 10 -4 10 -9z m198 -18 c2 -9 -8 -13 -35 -13 -36 1 -37 1 -18 16 22 17 46 15
53 -3z m2742 -3 c0 -5 -5 -10 -11 -10 -5 0 -7 5 -4 10 3 6 8 10 11 10 2 0 4
-4 4 -10z m-3196 -29 c6 -9 -43 -35 -52 -27 -2 3 -13 1 -23 -5 -15 -7 -19 -6
-19 6 0 9 9 15 24 15 14 0 28 5 31 10 8 12 32 13 39 1z m143 -33 c-15 -5 -25
-13 -22 -18 3 -4 -2 -13 -10 -20 -8 -7 -16 -11 -16 -9 -1 2 -3 16 -5 32 -3 26
-1 27 39 26 40 -1 41 -1 14 -11z m285 1 c-15 -6 -30 -5 -40 1 -13 7 -8 9 23 9
35 0 37 -1 17 -10z m-86 -42 c1 -17 -4 -27 -12 -27 -19 0 -17 -17 2 -24 21 -8
14 -16 -20 -22 -28 -5 -33 5 -14 24 7 7 8 12 2 12 -17 0 -14 43 4 56 24 19 37
12 38 -19z m-171 13 c-3 -5 -10 -10 -16 -10 -5 0 -9 5 -9 10 0 6 7 10 16 10 8
0 12 -4 9 -10z m55 -24 c0 -12 -28 -25 -52 -26 -15 0 -3 25 17 36 23 12 35 9
35 -10z m215 14 c-3 -5 -10 -10 -16 -10 -5 0 -9 5 -9 10 0 6 7 10 16 10 8 0
12 -4 9 -10z m-375 -36 c0 -8 -4 -14 -10 -14 -5 0 -10 9 -10 21 0 11 5 17 10
14 6 -3 10 -13 10 -21z m199 13 c-17 -13 -33 -47 -30 -61 1 -5 -14 -6 -32 -3
-20 3 -39 1 -46 -6 -9 -9 -14 -9 -20 1 -4 7 -15 10 -24 6 -9 -3 -25 -3 -34 1
-32 12 43 43 91 38 33 -4 45 -1 60 16 11 12 26 21 35 21 14 -1 15 -2 0 -13z
m-279 -16 c0 -24 -18 -37 -32 -23 -8 8 -7 16 2 27 17 21 30 19 30 -4z m3247
-17 c-3 -3 -12 -4 -19 -1 -8 3 -5 6 6 6 11 1 17 -2 13 -5z m-2957 -24 c0 -5
-4 -10 -9 -10 -6 0 -13 5 -16 10 -3 6 1 10 9 10 9 0 16 -4 16 -10z m1257 -6
c13 -4 20 -11 16 -20 -6 -17 -24 -19 -20 -1 1 6 -6 11 -15 9 -10 -2 -18 2 -18
8 0 11 6 12 37 4z m1639 -31 c-10 -10 -19 5 -10 18 6 11 8 11 12 0 2 -7 1 -15
-2 -18z m-3019 1 c-3 -3 -12 -4 -19 -1 -8 3 -5 6 6 6 11 1 17 -2 13 -5z m62
-3 c11 -7 9 -10 -8 -16 -25 -8 -36 -2 -26 14 8 13 15 14 34 2z m2915 -7 c14
-5 14 -8 -1 -30 -10 -16 -11 -24 -4 -24 7 0 3 -10 -9 -22 l-20 -22 -20 22
c-23 25 -25 35 -8 62 13 20 34 25 62 14z m109 -11 c-7 -2 -21 -2 -30 0 -10 3
-4 5 12 5 17 0 24 -2 18 -5z m-59 -104 c-6 -11 -24 -2 -24 11 0 5 7 7 15 4 8
-4 12 -10 9 -15z m-1780 -14 c-5 -19 -2 -25 11 -25 9 0 13 -5 10 -10 -4 -6
-11 -7 -17 -4 -7 5 -9 -2 -4 -20 5 -22 3 -26 -14 -26 -11 0 -20 -4 -20 -10 0
-16 -36 -11 -51 7 -13 15 -11 16 16 10 27 -5 26 -4 -7 11 -38 17 -51 42 -23
42 8 0 15 4 15 10 0 12 49 39 73 40 14 0 16 -5 11 -25z m786 -65 c0 -5 -7 -10
-15 -10 -8 0 -15 5 -15 10 0 6 7 10 15 10 8 0 15 -4 15 -10z m130 0 c0 -5 -4
-10 -10 -10 -5 0 -10 5 -10 10 0 6 5 10 10 10 6 0 10 -4 10 -10z m-2234 -25
c3 -8 2 -27 -3 -42 l-10 -28 -12 23 c-13 24 -7 62 10 62 5 0 12 -7 15 -15z
m3004 -20 c0 -8 -9 -15 -20 -15 -20 0 -26 11 -13 23 12 13 33 7 33 -8z m-453
-17 c-3 -8 -6 -5 -6 6 -1 11 2 17 5 13 3 -3 4 -12 1 -19z m402 -25 c-8 -9 -16
-10 -22 -4 -13 13 0 31 19 24 11 -4 12 -8 3 -20z m-1753 5 c12 1 29 -7 39 -18
10 -11 26 -20 35 -20 9 0 20 -4 26 -9 29 -29 258 -36 278 -9 9 13 13 13 24 2
9 -10 9 -14 1 -14 -6 0 -8 -7 -5 -15 3 -9 -1 -18 -10 -22 -8 -3 -13 -12 -10
-19 3 -7 0 -19 -7 -26 -7 -7 -14 -26 -15 -42 -2 -16 -12 -46 -23 -65 -10 -20
-19 -44 -19 -53 0 -10 -8 -18 -17 -19 -15 0 -15 -2 2 -9 11 -5 15 -9 8 -9 -22
-2 -72 -52 -66 -67 3 -9 0 -14 -8 -12 -21 5 -24 -53 -4 -68 9 -7 14 -17 10
-23 -3 -6 -2 -11 3 -11 5 0 12 -17 15 -37 5 -30 2 -41 -18 -61 -14 -14 -25
-30 -25 -37 0 -17 -61 -86 -71 -80 -4 3 -10 -8 -14 -23 -3 -16 -17 -35 -30
-42 -14 -7 -27 -22 -31 -33 -4 -12 -9 -16 -16 -9 -16 16 26 166 68 241 13 24
28 70 34 103 10 66 6 81 -47 169 -16 25 -37 60 -48 79 -11 18 -30 44 -42 58
-13 14 -23 29 -23 33 0 5 -18 22 -40 38 -21 15 -37 31 -34 33 2 3 6 19 9 36 7
57 15 74 33 66 10 -4 27 -6 38 -6z m1244 2 c0 -5 -4 -10 -10 -10 -5 0 -10 5
-10 10 0 6 5 10 10 10 6 0 10 -4 10 -10z m90 0 c0 -5 -9 -10 -21 -10 -11 0
-17 5 -14 10 3 6 13 10 21 10 8 0 14 -4 14 -10z m-2485 -58 c3 -43 3 -44 -23
-37 -34 8 -36 10 -27 32 7 17 9 22 13 46 1 5 9 7 18 5 11 -2 17 -16 19 -46z
m2111 12 c0 -40 33 -78 59 -68 8 3 20 -4 27 -15 7 -12 20 -21 30 -21 26 0 27
-23 2 -36 -24 -13 -97 -19 -173 -16 l-44 2 7 41 c7 46 30 86 40 70 12 -19 36
1 36 30 0 23 -5 29 -22 30 -22 1 -22 1 2 9 14 4 27 8 31 9 3 1 5 -15 5 -35z
m-2186 22 c0 -3 -4 -8 -10 -11 -5 -3 -10 -1 -10 4 0 6 5 11 10 11 6 0 10 -2
10 -4z m2145 -36 c3 -5 1 -10 -4 -10 -6 0 -11 5 -11 10 0 6 2 10 4 10 3 0 8
-4 11 -10z m321 -37 c-10 -10 -19 5 -10 18 6 11 8 11 12 0 2 -7 1 -15 -2 -18z
m496 -2 c7 -19 6 -22 -5 -12 -8 6 -17 8 -21 4 -9 -9 -27 18 -19 30 9 15 36 2
45 -22z m-372 3 c0 -8 -4 -12 -10 -9 -5 3 -10 10 -10 16 0 5 5 9 10 9 6 0 10
-7 10 -16z m110 -24 c0 -5 -4 -10 -9 -10 -5 0 -17 -3 -25 -6 -12 -5 -15 -2
-10 10 7 17 44 22 44 6z m-330 -10 c0 -5 -4 -10 -9 -10 -6 0 -13 5 -16 10 -3
6 1 10 9 10 9 0 16 -4 16 -10z m263 -25 c11 -22 13 -36 6 -41 -6 -3 -12 -4
-13 -3 -20 27 -36 56 -36 66 0 26 27 12 43 -22z m-79 -35 c-23 -23 -37 1 -17
30 16 22 17 22 24 4 4 -11 1 -25 -7 -34z m171 40 c3 -5 -1 -10 -9 -10 -9 0
-16 5 -16 10 0 6 4 10 9 10 6 0 13 -4 16 -10z m-1595 -29 c0 -21 -19 -38 -37
-35 -7 1 -17 2 -23 3 -6 1 -5 11 2 26 7 15 17 24 25 21 7 -3 13 -1 13 5 0 6 5
7 10 4 6 -3 10 -14 10 -24z m1234 14 c-6 -16 -24 -21 -24 -7 0 11 11 22 21 22
5 0 6 -7 3 -15z m46 -60 c-19 -23 -29 -18 -17 9 7 15 16 21 21 16 6 -6 4 -15
-4 -25z m-2133 -37 c-3 -8 -6 -5 -6 6 -1 11 2 17 5 13 3 -3 4 -12 1 -19z
m1751 10 c-6 -18 -28 -21 -28 -4 0 9 7 16 16 16 9 0 14 -5 12 -12z m328 -3
c-10 -8 -15 -18 -11 -24 8 -14 -38 -14 -52 0 -7 7 -21 3 -48 -12 -33 -20 -36
-24 -21 -35 15 -10 15 -12 1 -18 -30 -11 -76 21 -52 36 9 6 9 8 0 8 -20 0 -15
20 5 20 9 0 28 9 40 19 17 12 43 18 90 19 59 0 65 -1 48 -13z m359 -5 c3 -5
-1 -10 -10 -10 -9 0 -13 5 -10 10 3 6 8 10 10 10 2 0 7 -4 10 -10z m185 2 c0
-4 -16 -12 -35 -18 -27 -9 -37 -8 -46 2 -8 10 -3 14 23 17 18 2 39 5 46 5 6 1
12 -1 12 -6z m-120 -10 c0 -5 10 -14 23 -19 21 -10 21 -11 3 -19 -13 -5 -21
-3 -24 4 -2 7 -10 12 -18 12 -15 0 -19 12 -7 23 9 10 23 9 23 -1z m-2522 -18
c37 -18 40 -29 13 -44 -30 -15 -72 -12 -86 7 -10 14 -9 20 9 35 26 22 26 22
64 2z m2692 6 c0 -5 -4 -10 -10 -10 -5 0 -10 5 -10 10 0 6 5 10 10 10 6 0 10
-4 10 -10z m110 0 c0 -6 11 -8 26 -4 19 5 25 4 20 -5 -11 -17 -76 -14 -76 4 0
8 7 15 15 15 8 0 15 -5 15 -10z m-55 -10 c3 -5 -3 -10 -15 -10 -12 0 -18 5
-15 10 3 6 10 10 15 10 5 0 12 -4 15 -10z m-900 -20 c-3 -5 -13 -10 -21 -10
-8 0 -14 5 -14 10 0 6 9 10 21 10 11 0 17 -4 14 -10z m174 -17 c-8 -9 -16 -10
-22 -4 -13 13 0 31 19 24 11 -4 12 -8 3 -20z m221 17 c0 -5 -14 -10 -31 -10
-17 0 -28 4 -24 10 3 6 17 10 31 10 13 0 24 -4 24 -10z m180 -19 c0 -12 -26
-32 -33 -25 -9 10 4 34 19 34 8 0 14 -4 14 -9z m-1918 -39 c53 -11 102 -23
109 -28 10 -6 20 -8 67 -13 6 0 12 -5 12 -11 0 -14 -107 -13 -133 2 -25 14
-39 16 -123 18 -33 2 -71 -3 -83 -10 -42 -22 -42 5 -1 30 22 14 40 32 40 40 0
10 3 11 8 3 4 -6 51 -21 104 -31z m518 34 c0 -3 -4 -8 -10 -11 -5 -3 -10 -1
-10 4 0 6 5 11 10 11 6 0 10 -2 10 -4z m1107 -23 c-9 -9 -19 -14 -23 -11 -10
10 6 28 24 28 15 0 15 -1 -1 -17z m-207 -2 c0 -4 -11 -6 -25 -3 -14 2 -25 6
-25 8 0 2 11 4 25 4 14 0 25 -4 25 -9z m250 -31 c0 -5 -4 -10 -10 -10 -5 0
-10 5 -10 10 0 6 5 10 10 10 6 0 10 -4 10 -10z m-405 -20 c3 -5 1 -10 -4 -10
-6 0 -11 5 -11 10 0 6 2 10 4 10 3 0 8 -4 11 -10z m1115 -5 c0 -17 -2 -18 -24
-9 -23 9 -20 24 4 24 11 0 20 -7 20 -15z m-2284 -35 c24 -10 52 -16 62 -13 11
3 31 -1 43 -8 13 -7 36 -12 52 -10 16 1 29 -3 33 -12 3 -8 13 -13 22 -11 26 6
43 -10 52 -49 6 -28 4 -37 -7 -41 -23 -9 -53 -7 -53 4 0 5 -16 9 -35 8 -19 -1
-38 2 -42 5 -3 4 -12 2 -19 -4 -10 -8 -28 -8 -64 0 -77 17 -106 14 -116 -10
-9 -20 -10 -20 -32 -1 -13 12 -20 26 -16 35 4 12 -3 18 -28 25 -30 7 -33 12
-36 52 -2 28 1 46 10 51 20 13 127 0 174 -21z m149 20 c3 -5 -1 -10 -10 -10
-9 0 -13 5 -10 10 3 6 8 10 10 10 2 0 7 -4 10 -10z m1598 -27 c-7 -2 -21 -2
-30 0 -10 3 -4 5 12 5 17 0 24 -2 18 -5z m-1136 -25 c-3 -8 -6 -5 -6 6 -1 11
2 17 5 13 3 -3 4 -12 1 -19z m-1659 -54 c2 -26 8 -54 14 -61 8 -10 6 -13 -8
-13 -16 0 -17 -2 -4 -10 13 -9 13 -11 0 -20 -21 -14 -27 -13 -51 11 -13 13
-18 27 -14 37 4 9 11 35 17 56 11 49 17 58 31 53 7 -2 13 -26 15 -53z m2202 6
c0 -5 -7 -10 -16 -10 -8 0 -12 5 -9 10 3 6 10 10 16 10 5 0 9 -4 9 -10z m-75
-51 c3 -9 17 -20 30 -23 22 -6 23 -9 13 -26 -19 -29 -38 -24 -45 11 -5 28 -9
30 -34 25 -18 -3 -29 -1 -32 8 -8 19 -2 23 33 23 19 0 32 -6 35 -18z m-865
-99 c0 -5 -5 -10 -11 -10 -5 0 -7 5 -4 10 3 6 8 10 11 10 2 0 4 -4 4 -10z
m-1283 -21 c9 -9 8 -16 -4 -27 -13 -13 -16 -13 -24 -1 -20 32 2 54 28 28z
m-97 -104 c0 -8 -4 -15 -9 -15 -13 0 -22 16 -14 24 11 11 23 6 23 -9z m57 -37
c-2 -7 -10 -12 -17 -10 -22 5 -48 -8 -53 -28 -7 -26 -27 -26 -34 0 -3 11 -9
20 -14 20 -5 0 -9 5 -9 11 0 8 4 8 13 1 8 -7 21 -6 42 3 39 18 78 19 72 3z
m393 -18 c0 -5 -11 -10 -25 -10 -14 0 -25 5 -25 10 0 6 11 10 25 10 14 0 25
-4 25 -10z m75 0 c4 -6 -7 -10 -25 -10 -18 0 -29 4 -25 10 3 6 15 10 25 10 10
0 22 -4 25 -10z m153 0 c12 0 22 -4 22 -10 0 -10 -109 -12 -143 -3 -36 9 -4
23 46 18 29 -2 62 -4 75 -5z m-478 -26 c0 -8 -5 -12 -10 -9 -6 4 -8 11 -5 16
9 14 15 11 15 -7z m1364 -11 c5 -11 2 -13 -10 -9 -8 3 -18 6 -20 6 -2 0 -4 7
-4 15 0 18 26 9 34 -12z m-1474 -18 c0 -29 -14 -33 -30 -7 -8 12 -13 13 -16 5
-7 -17 -37 -17 -32 -1 4 12 36 25 66 27 6 1 12 -10 12 -24z m50 15 c0 -5 -5
-10 -11 -10 -5 0 -7 5 -4 10 3 6 8 10 11 10 2 0 4 -4 4 -10z m2857 -6 c-3 -3
-12 -4 -19 -1 -8 3 -5 6 6 6 11 1 17 -2 13 -5z m-3017 -22 c0 -21 -36 -59 -46
-49 -10 9 19 67 33 67 7 0 13 -8 13 -18z m1548 -10 c3 -17 -2 -22 -17 -22 -14
0 -21 6 -21 18 0 38 33 41 38 4z m-1820 6 c-5 -16 -48 -24 -48 -9 0 8 17 16
43 20 5 0 7 -5 5 -11z m517 2 c-3 -5 -15 -10 -26 -10 -11 0 -17 5 -14 10 3 6
15 10 26 10 11 0 17 -4 14 -10z m265 3 c-1 -20 -49 -65 -63 -60 -22 8 -10 47
15 47 10 0 16 5 13 10 -3 6 3 10 14 10 12 0 21 -3 21 -7z m-137 -13 c22 0 36
-3 33 -8 -8 -13 -63 -20 -78 -11 -7 4 -18 3 -25 -2 -7 -6 -17 -8 -22 -4 -18
10 12 36 34 29 11 -3 37 -5 58 -4z m-643 -40 c-20 -13 -43 -13 -35 0 3 6 16
10 28 10 18 0 19 -2 7 -10z m1765 0 c-3 -5 -12 -10 -18 -10 -7 0 -6 4 3 10 19
12 23 12 15 0z m-1255 -10 c0 -17 -22 -22 -36 -9 -11 12 -9 14 11 15 14 1 25
-2 25 -6z m390 0 c0 -5 -4 -10 -10 -10 -5 0 -10 5 -10 10 0 6 5 10 10 10 6 0
10 -4 10 -10z m830 -10 c0 -5 -4 -10 -10 -10 -5 0 -10 5 -10 10 0 6 5 10 10
10 6 0 10 -4 10 -10z m-381 -189 c7 -5 9 -11 5 -14 -5 -3 -15 1 -22 9 -14 16
-5 18 17 5z m65 -42 c-2 -4 -15 -2 -28 4 -13 7 -22 15 -20 18 2 4 15 2 28 -4
13 -7 22 -15 20 -18z m21 -19 c3 -5 1 -10 -4 -10 -6 0 -11 5 -11 10 0 6 2 10
4 10 3 0 8 -4 11 -10z"/>
<path d="M1072 3390 c-7 -12 -8 -20 -2 -20 5 0 10 6 10 13 0 7 7 4 15 -7 19
-25 30 -15 15 13 -13 26 -22 26 -38 1z"/>
<path d="M3118 3223 c7 -3 16 -2 19 1 4 3 -2 6 -13 5 -11 0 -14 -3 -6 -6z"/>
<path d="M3192 3212 c-9 -2 -4 -9 13 -18 31 -16 35 -17 35 -6 0 12 -34 29 -48
24z"/>
<path d="M2998 3203 c7 -3 16 -2 19 1 4 3 -2 6 -13 5 -11 0 -14 -3 -6 -6z"/>
<path d="M790 3260 c-13 -8 -12 -10 3 -10 9 0 17 5 17 10 0 12 -1 12 -20 0z"/>
<path d="M3235 2830 c-3 -5 1 -10 9 -10 9 0 16 5 16 10 0 6 -4 10 -9 10 -6 0
-13 -4 -16 -10z"/>
<path d="M3110 2760 c0 -5 7 -10 16 -10 8 0 12 5 9 10 -3 6 -10 10 -16 10 -5
0 -9 -4 -9 -10z"/>
<path d="M3241 2756 c-9 -10 -8 -16 3 -25 12 -10 17 -8 25 7 16 30 -6 44 -28
18z"/>
<path d="M2950 2749 c0 -5 5 -7 10 -4 6 3 10 8 10 11 0 2 -4 4 -10 4 -5 0 -10
-5 -10 -11z"/>
<path d="M3305 2741 c-3 -5 -1 -12 5 -16 5 -3 10 1 10 9 0 18 -6 21 -15 7z"/>
<path d="M3116 2725 c-4 -11 1 -15 19 -15 28 0 33 15 9 24 -21 8 -21 8 -28 -9z"/>
<path d="M3042 2716 c1 -10 8 -17 13 -17 15 1 12 24 -3 29 -9 3 -13 -2 -10
-12z"/>
<path d="M2998 2696 c-26 -19 -22 -26 7 -13 14 7 25 15 25 20 0 11 -13 8 -32
-7z"/>
<path d="M3526 2692 c-3 -6 1 -13 10 -16 23 -9 28 -2 10 13 -8 7 -17 8 -20 3z"/>
<path d="M3122 2641 c3 -21 1 -28 -9 -24 -7 3 -13 11 -13 19 0 8 -6 14 -14 14
-7 0 -28 3 -46 6 -31 7 -32 6 -29 -23 2 -17 -3 -38 -11 -48 -12 -14 -12 -18 1
-26 25 -16 82 -22 100 -11 13 8 19 8 22 -1 3 -7 6 -2 6 11 1 16 7 22 25 22 29
0 44 -18 22 -26 -9 -3 -16 -15 -16 -26 0 -11 -8 -22 -20 -25 -23 -6 -26 -18
-7 -26 16 -6 47 16 47 33 0 7 11 21 25 32 15 11 25 30 25 45 0 16 7 27 20 30
24 6 25 13 7 37 -12 17 -14 17 -20 2 -8 -21 -27 -21 -27 2 -1 16 -1 16 -14 0
-16 -22 -26 -23 -26 -3 0 10 -10 15 -26 15 -23 0 -26 -3 -22 -29z m-82 -21 c0
-5 -4 -10 -10 -10 -5 0 -10 5 -10 10 0 6 5 10 10 10 6 0 10 -4 10 -10z"/>
<path d="M2870 2629 c0 -5 9 -9 20 -9 11 0 20 2 20 4 0 2 -9 6 -20 9 -11 3
-20 1 -20 -4z"/>
<path d="M3272 2568 c5 -15 28 -18 29 -3 0 6 -7 12 -17 13 -10 3 -15 -1 -12
-10z"/>
<path d="M3520 2475 c0 -8 6 -15 14 -15 22 0 28 17 10 24 -22 9 -24 8 -24 -9z"/>
<path d="M3562 2441 c-8 -4 -12 -19 -10 -32 2 -17 8 -23 23 -21 11 2 38 4 60
5 49 2 51 16 5 39 -39 19 -59 22 -78 9z"/>
<path d="M3684 2399 c-7 -11 13 -29 31 -28 6 0 4 3 -3 6 -10 4 -10 8 -1 19 9
11 8 14 -4 14 -9 0 -19 -5 -23 -11z"/>
<path d="M3026 2153 c-11 -11 -6 -23 9 -23 8 0 15 4 15 9 0 13 -16 22 -24 14z"/>
<path d="M1036 3991 c-4 -5 3 -15 15 -21 18 -10 20 -9 17 6 -4 20 -23 30 -32
15z"/>
<path d="M1368 3989 c-7 -22 5 -79 17 -79 8 0 11 10 7 28 -4 21 -2 25 8 15 10
-9 17 -7 31 12 24 29 24 35 -1 35 -12 0 -20 -7 -20 -16 0 -9 -6 -14 -12 -11
-7 2 -12 10 -10 16 3 14 -15 14 -20 0z"/>
<path d="M1468 3993 c7 -3 16 -2 19 1 4 3 -2 6 -13 5 -11 0 -14 -3 -6 -6z"/>
<path d="M1800 3990 c0 -5 4 -10 9 -10 6 0 13 5 16 10 3 6 -1 10 -9 10 -9 0
-16 -4 -16 -10z"/>
<path d="M89 3983 c-1 -5 -1 -11 -1 -14 1 -4 -10 -10 -23 -13 -31 -8 -33 -26
-2 -26 29 0 41 10 45 38 3 19 -16 34 -19 15z"/>
<path d="M1550 3940 c0 -5 5 -10 10 -10 6 0 10 5 10 10 0 6 -4 10 -10 10 -5 0
-10 -4 -10 -10z"/>
<path d="M2880 3926 c0 -2 9 -6 20 -9 11 -3 20 -1 20 4 0 5 -9 9 -20 9 -11 0
-20 -2 -20 -4z"/>
<path d="M1444 3909 c-3 -6 1 -18 10 -27 13 -14 18 -14 28 -3 9 9 9 12 1 7 -6
-3 -14 -2 -18 4 -3 5 3 10 14 10 12 0 21 5 21 10 0 14 -47 13 -56 -1z"/>
<path d="M2488 3883 c7 -3 16 -2 19 1 4 3 -2 6 -13 5 -11 0 -14 -3 -6 -6z"/>
<path d="M620 3839 l-45 -21 30 -11 c34 -11 45 -24 38 -43 -3 -8 6 -18 21 -24
14 -5 26 -13 26 -18 0 -4 14 -13 30 -19 31 -12 41 -33 15 -33 -8 0 -19 -9 -25
-20 -7 -14 -7 -20 0 -20 5 0 10 4 10 9 0 4 16 6 36 4 33 -3 34 -2 24 17 -6 11
-8 30 -5 40 4 13 2 20 -6 20 -10 0 -10 3 -1 12 8 8 16 5 31 -13 l19 -24 12 27
c13 28 8 58 -10 58 -5 0 -10 -8 -10 -17 0 -13 -3 -14 -12 -5 -7 7 -20 12 -29
12 -12 0 -16 6 -12 20 3 11 9 20 14 20 5 0 9 5 9 10 0 6 -20 10 -44 10 -30 0
-46 5 -50 15 -7 19 -12 19 -66 -6z m55 -10 c12 -19 -5 -23 -22 -6 -16 16 -16
17 -1 17 9 0 20 -5 23 -11z"/>
<path d="M800 3830 c6 -11 13 -20 15 -20 3 0 5 9 5 20 0 11 -7 20 -15 20 -13
0 -14 -4 -5 -20z"/>
<path d="M108 3793 c7 -3 16 -2 19 1 4 3 -2 6 -13 5 -11 0 -14 -3 -6 -6z"/>
<path d="M528 3784 c-16 -8 -29 -20 -30 -27 0 -7 -2 -17 -2 -23 -1 -6 -7 -19
-15 -28 -9 -10 -10 -16 -2 -16 6 0 11 -9 11 -20 0 -20 15 -21 69 -4 8 3 19 -1
24 -8 6 -9 7 -8 3 5 -3 10 1 28 9 40 13 19 12 22 -11 44 -15 13 -23 30 -20 38
7 19 -1 18 -36 -1z"/>
<path d="M195 3773 c-18 -14 -18 -15 -2 -9 10 3 23 6 28 6 5 0 9 5 9 10 0 14
-12 12 -35 -7z"/>
<path d="M2905 3780 c-3 -5 1 -10 10 -10 9 0 13 5 10 10 -3 6 -8 10 -10 10 -2
0 -7 -4 -10 -10z"/>
<path d="M1780 3765 c0 -8 5 -15 10 -15 6 0 10 7 10 15 0 8 -4 15 -10 15 -5 0
-10 -7 -10 -15z"/>
<path d="M1865 3770 c-3 -5 3 -10 15 -10 12 0 18 5 15 10 -3 6 -10 10 -15 10
-5 0 -12 -4 -15 -10z"/>
<path d="M357 3710 c4 -13 0 -20 -9 -20 -8 0 -20 -11 -26 -25 -11 -24 -10 -25
14 -22 15 2 32 11 39 20 15 21 8 67 -10 67 -8 0 -11 -8 -8 -20z"/>
<path d="M1378 3723 c-26 -7 -22 -16 18 -35 45 -23 54 -23 54 3 0 11 -4 17
-10 14 -5 -3 -15 -3 -21 1 -8 4 -7 9 2 15 11 6 9 8 -6 8 -11 -1 -28 -3 -37 -6z"/>
<path d="M633 3705 c0 -8 7 -15 15 -15 12 0 12 3 2 15 -7 8 -13 15 -15 15 -1
0 -2 -7 -2 -15z"/>
<path d="M10 3611 c0 -50 2 -91 5 -91 3 0 14 9 25 20 11 11 29 20 41 20 12 0
19 5 16 13 -2 6 -16 12 -30 11 -18 0 -24 3 -17 10 16 16 12 44 -7 49 -17 4
-17 5 0 6 28 2 18 45 -10 49 -22 3 -23 1 -23 -87z"/>
<path d="M649 3657 c6 -8 8 -17 4 -20 -3 -4 -1 -7 5 -7 7 0 12 9 12 20 0 12
-7 20 -16 20 -13 0 -14 -3 -5 -13z"/>
<path d="M1340 3666 c0 -2 7 -6 15 -10 8 -3 15 -1 15 4 0 6 -7 10 -15 10 -8 0
-15 -2 -15 -4z"/>
<path d="M95 3647 c-4 -10 -5 -21 -1 -24 10 -10 18 4 13 24 -4 17 -4 17 -12 0z"/>
<path d="M1440 3642 c0 -4 -14 -6 -31 -4 -22 3 -30 1 -25 -6 4 -6 -2 -20 -14
-32 -27 -27 -3 -27 47 0 21 11 44 20 51 20 8 0 12 6 10 13 -5 14 -38 23 -38 9z"/>
<path d="M695 3610 c-4 -6 -15 -8 -26 -5 -26 8 -25 -15 1 -38 29 -24 54 -23
40 2 -5 11 -7 27 -4 35 7 18 -1 22 -11 6z"/>
<path d="M543 3583 c-6 -15 14 -43 29 -43 6 0 6 6 -1 14 -10 12 -8 13 8 9 12
-3 18 -10 14 -17 -4 -8 -3 -8 6 0 18 16 0 49 -27 50 -13 0 -26 -5 -29 -13z"/>
<path d="M10 3485 c0 -8 5 -15 10 -15 6 0 10 7 10 15 0 8 -4 15 -10 15 -5 0
-10 -7 -10 -15z"/>
<path d="M775 3490 c3 -5 8 -10 11 -10 2 0 4 5 4 10 0 6 -5 10 -11 10 -5 0 -7
-4 -4 -10z"/>
<path d="M510 3480 c-12 -8 -11 -10 6 -10 11 0 26 -6 32 -12 10 -10 15 -10 22
2 5 8 10 18 10 23 0 10 -52 8 -70 -3z"/>
<path d="M195 3450 c3 -5 15 -10 26 -10 11 0 17 5 14 10 -3 6 -15 10 -26 10
-11 0 -17 -4 -14 -10z"/>
<path d="M200 3411 c-37 -9 -68 -31 -52 -37 6 -3 12 -12 12 -20 0 -11 4 -12
19 -3 10 7 18 17 17 23 0 6 4 11 9 11 6 0 9 -6 9 -12 -1 -7 4 -13 11 -13 7 0
15 6 18 13 5 15 -3 47 -12 46 -3 -1 -17 -4 -31 -8z"/>
<path d="M383 3373 c-7 -3 -13 -8 -13 -13 0 -11 39 -20 45 -10 7 11 -17 28
-32 23z"/>
<path d="M20 3359 c0 -5 5 -7 10 -4 6 3 10 8 10 11 0 2 -4 4 -10 4 -5 0 -10
-5 -10 -11z"/>
<path d="M477 3349 c-5 -20 -5 -20 14 -3 23 20 23 24 5 24 -7 0 -16 -9 -19
-21z"/>
<path d="M225 3340 c-3 -5 -1 -10 4 -10 6 0 11 5 11 10 0 6 -2 10 -4 10 -3 0
-8 -4 -11 -10z"/>
<path d="M30 3325 c-7 -8 -9 -15 -6 -15 4 0 14 7 22 15 9 8 11 15 6 15 -5 0
-15 -7 -22 -15z"/>
<path d="M420 3314 c0 -8 5 -12 10 -9 6 3 10 10 10 16 0 5 -4 9 -10 9 -5 0
-10 -7 -10 -16z"/>
<path d="M273 3246 c-7 -8 -11 -22 -11 -32 2 -20 -49 -104 -63 -104 -5 0 -13
-9 -20 -21 -10 -19 -8 -20 10 -14 12 3 21 2 21 -2 0 -11 -59 -33 -88 -33 -11
0 -24 -5 -27 -10 -4 -6 -10 -8 -13 -6 -4 2 -18 -2 -32 -10 -23 -14 -21 -15 37
-9 38 4 64 2 68 -5 10 -16 55 -12 55 4 0 27 42 86 60 86 11 0 22 5 25 10 3 6
-3 10 -15 10 -12 0 -19 4 -15 10 3 5 12 7 20 4 20 -8 43 42 27 58 -7 7 -12 27
-12 45 0 35 -8 41 -27 19z m30 -70 c3 -8 -1 -17 -9 -20 -24 -9 -31 -7 -14 4
10 6 11 10 3 10 -7 0 -13 5 -13 10 0 15 27 12 33 -4z"/>
<path d="M137 3200 c-13 -13 -16 -25 -11 -46 12 -48 28 -57 54 -28 16 16 19
24 10 24 -9 0 -7 5 6 15 18 14 18 14 -4 15 -13 0 -26 8 -30 18 -7 18 -8 18
-25 2z"/>
<path d="M78 3203 c7 -3 16 -2 19 1 4 3 -2 6 -13 5 -11 0 -14 -3 -6 -6z"/>
<path d="M65 2937 c-4 -10 -5 -21 -1 -24 10 -10 18 4 13 24 -4 17 -4 17 -12 0z"/>
<path d="M249 2900 c-46 -45 -51 -53 -36 -62 12 -6 22 -5 33 6 8 9 23 16 31
16 14 0 14 -2 0 -18 -21 -23 -22 -36 -3 -29 8 3 30 1 50 -4 27 -8 42 -6 66 6
16 8 30 17 30 20 0 2 -23 1 -52 -2 -42 -5 -50 -4 -43 7 5 8 10 24 11 36 2 17
-1 21 -13 17 -13 -5 -15 -2 -9 13 22 57 -3 54 -65 -6z"/>
<path d="M480 2801 c0 -21 13 -41 27 -41 10 0 13 6 9 16 -3 9 -6 20 -6 25 0 5
-7 9 -15 9 -8 0 -15 -4 -15 -9z"/>
<path d="M0 2767 c0 -23 2 -24 25 -14 25 12 34 27 16 27 -5 0 -16 3 -25 6 -12
5 -16 0 -16 -19z"/>
<path d="M1366 2775 c-8 -8 -29 -18 -45 -21 -17 -4 -31 -12 -31 -20 0 -7 -7
-17 -15 -22 -9 -4 -18 -25 -22 -47 -4 -27 -3 -36 5 -31 7 4 12 13 12 20 0 21
53 64 90 74 29 7 46 4 95 -16 101 -43 110 -62 25 -54 -66 5 -92 -2 -135 -39
-19 -17 -35 -27 -35 -23 0 5 -7 -4 -15 -20 -22 -41 -19 -71 10 -102 15 -17 23
-34 20 -45 -15 -46 125 -74 244 -48 56 12 104 49 95 73 -4 9 -1 16 6 16 7 0
10 7 6 15 -3 8 -1 15 5 15 11 0 2 46 -15 75 -14 22 -6 70 11 70 24 0 23 13 -2
19 -31 8 -65 36 -65 53 0 14 -86 41 -142 45 -21 1 -40 8 -42 15 -7 18 -41 16
-60 -2z m74 -35 c0 -5 -2 -10 -4 -10 -3 0 -8 5 -11 10 -3 6 -1 10 4 10 6 0 11
-4 11 -10z m40 -130 c0 -12 -8 -12 -35 0 -18 8 -17 9 8 9 15 1 27 -3 27 -9z
m-16 -55 c-5 -19 -2 -25 10 -25 9 0 16 -5 16 -11 0 -6 -8 -9 -19 -6 -14 3 -17
0 -14 -14 6 -22 32 -45 58 -52 15 -3 12 -5 -10 -7 -16 -1 -46 -8 -65 -15 l-35
-13 37 -1 c42 -1 64 -21 22 -21 -15 0 -45 5 -67 12 -32 10 -36 13 -21 19 17 7
17 8 2 8 -10 1 -18 6 -18 12 0 6 7 9 14 6 10 -4 13 -1 10 8 -4 10 1 12 18 9
22 -5 21 -4 -3 10 -15 9 -30 23 -33 32 -11 29 40 72 87 73 14 1 16 -4 11 -24z"/>
<path d="M278 2768 c-26 -9 -40 -38 -19 -38 11 0 81 40 81 46 0 7 -34 3 -62
-8z"/>
<path d="M411 2766 c-9 -11 -7 -13 11 -11 36 4 38 4 38 15 0 15 -36 12 -49 -4z"/>
<path d="M436 2719 c-11 -10 -17 -22 -13 -25 8 -8 57 23 57 36 0 16 -24 10
-44 -11z"/>
<path d="M80 2696 c0 -15 -21 -26 -51 -26 -10 0 -19 -2 -19 -4 0 -2 -3 -13 -6
-23 -3 -10 -2 -14 3 -7 4 5 23 14 42 20 21 5 37 18 42 32 5 13 5 22 -1 22 -6
0 -10 -6 -10 -14z"/>
<path d="M310 2689 c0 -5 5 -7 10 -4 6 3 10 8 10 11 0 2 -4 4 -10 4 -5 0 -10
-5 -10 -11z"/>
<path d="M212 2681 c-10 -6 -7 -12 11 -24 22 -14 24 -14 35 4 7 11 18 16 27
13 8 -4 15 -1 15 5 0 13 -69 15 -88 2z"/>
<path d="M448 2673 c6 -2 18 -2 25 0 6 3 1 5 -13 5 -14 0 -19 -2 -12 -5z"/>
<path d="M137 2663 c-13 -13 -7 -32 8 -27 8 4 15 12 15 20 0 15 -12 19 -23 7z"/>
<path d="M1140 2640 c-11 -7 -12 -12 -3 -21 13 -13 33 -4 33 17 0 16 -9 18
-30 4z"/>
<path d="M155 2604 c-40 -22 -40 -21 -21 -39 15 -15 21 -15 70 -1 30 9 67 13
82 10 18 -3 36 0 49 10 l20 15 -20 2 c-11 1 -31 2 -45 4 -14 1 -43 5 -65 8
-28 5 -49 2 -70 -9z"/>
<path d="M27 2573 c-9 -2 -15 -9 -12 -14 10 -15 52 -10 59 6 5 15 -9 18 -47 8z"/>
<path d="M315 2530 c-3 -5 -1 -10 4 -10 6 0 11 5 11 10 0 6 -2 10 -4 10 -3 0
-8 -4 -11 -10z"/>
<path d="M610 2516 c0 -9 7 -16 16 -16 17 0 14 22 -4 28 -7 2 -12 -3 -12 -12z"/>
<path d="M425 2500 c-11 -17 5 -32 21 -19 8 6 14 15 14 20 0 12 -27 11 -35 -1z"/>
<path d="M580 2465 c0 -8 -6 -15 -14 -15 -22 0 -27 -14 -13 -44 13 -27 22 -32
31 -17 3 5 -1 12 -10 15 -13 5 -13 9 5 32 23 29 27 44 11 44 -5 0 -10 -7 -10
-15z"/>
<path d="M511 2351 l-24 -7 26 -17 c32 -21 47 -22 47 -3 0 21 -23 33 -49 27z"/>
<path d="M586 2294 c-3 -7 -16 -9 -33 -6 -25 5 -27 4 -14 -11 11 -14 11 -18
-3 -23 -24 -9 -19 -22 7 -17 14 3 29 -2 36 -11 18 -22 43 -20 39 2 -2 9 -14
18 -26 20 -33 5 -21 28 12 24 26 -3 56 12 56 28 0 13 -69 7 -74 -6z"/>
<path d="M635 2250 c3 -5 13 -10 21 -10 8 0 14 5 14 10 0 6 -9 10 -21 10 -11
0 -17 -4 -14 -10z"/>
<path d="M506 2213 c-8 -8 -13 -9 -41 -12 -16 -1 -21 -31 -5 -31 6 0 10 -10
10 -22 0 -18 2 -20 9 -8 6 8 7 18 5 22 -3 4 2 5 11 2 11 -5 14 -2 9 10 -4 10
0 18 10 22 9 3 16 10 16 15 0 11 -14 12 -24 2z"/>
<path d="M455 2109 c-4 -6 -4 -13 -1 -16 8 -8 36 5 36 17 0 13 -27 13 -35 -1z"/>
<path d="M270 2075 c0 -8 5 -15 10 -15 6 0 10 7 10 15 0 8 -4 15 -10 15 -5 0
-10 -7 -10 -15z"/>
<path d="M663 2059 c-13 -5 -23 -15 -23 -24 0 -8 -3 -14 -7 -14 -22 4 -33 -3
-33 -17 0 -24 68 -9 99 21 22 22 23 23 5 33 -11 6 -28 6 -41 1z"/>
<path d="M280 1980 c0 -5 4 -10 9 -10 6 0 13 5 16 10 3 6 -1 10 -9 10 -9 0
-16 -4 -16 -10z"/>
<path d="M377 1984 c-8 -8 1 -24 14 -24 5 0 9 7 9 15 0 15 -12 20 -23 9z"/>
<path d="M16 1878 c-19 -26 -22 -128 -5 -128 6 0 9 9 6 20 -3 11 -1 23 4 26 5
3 7 21 3 40 -6 30 -3 36 15 41 24 6 29 23 7 23 -8 0 -22 -10 -30 -22z"/>
<path d="M210 1839 c0 -5 5 -7 10 -4 6 3 10 8 10 11 0 2 -4 4 -10 4 -5 0 -10
-5 -10 -11z"/>
<path d="M276 1832 c-2 -4 9 -22 26 -41 24 -26 35 -32 59 -29 27 4 29 3 29
-31 1 -32 2 -34 12 -16 24 40 13 65 -30 65 -13 0 -20 4 -17 10 3 6 -5 10 -18
10 -16 0 -26 7 -30 20 -5 20 -22 27 -31 12z"/>
<path d="M398 1793 c6 -2 18 -2 25 0 6 3 1 5 -13 5 -14 0 -19 -2 -12 -5z"/>
<path d="M221 1715 c-24 -24 -22 -45 6 -45 9 0 13 -6 9 -15 -7 -19 -2 -19 34
0 39 20 38 37 -2 33 -32 -3 -53 17 -24 24 9 2 12 8 8 14 -5 7 -15 4 -31 -11z"/>
<path d="M1 1704 c0 -11 3 -14 6 -6 3 7 2 16 -1 19 -3 4 -6 -2 -5 -13z"/>
<path d="M337 1713 c-4 -7 -3 -14 1 -17 5 -3 7 -17 4 -31 -4 -21 -1 -25 19
-25 20 0 21 -2 7 -12 -9 -7 -19 -24 -23 -38 -7 -22 -6 -23 9 -11 12 11 19 11
31 1 14 -11 55 -6 55 8 0 4 3 17 6 30 5 16 2 22 -10 22 -9 0 -16 7 -16 16 0 8
-4 12 -10 9 -5 -3 -10 -1 -10 4 0 6 -6 11 -14 11 -7 0 -20 10 -28 22 -9 14
-17 18 -21 11z m63 -103 c0 -5 -4 -10 -10 -10 -5 0 -10 5 -10 10 0 6 5 10 10
10 6 0 10 -4 10 -10z"/>
<path d="M163 1676 c9 -7 17 -21 17 -31 0 -14 3 -15 15 -5 21 17 19 25 -10 38
-34 16 -44 15 -22 -2z"/>
<path d="M2962 1629 c1 -12 9 -24 16 -27 9 -3 13 3 10 19 -1 12 -9 24 -16 27
-9 3 -13 -3 -10 -19z"/>
<path d="M2880 1551 c0 -12 5 -21 10 -21 6 0 10 6 10 14 0 8 -4 18 -10 21 -5
3 -10 -3 -10 -14z"/>
<path d="M390 1550 c0 -5 5 -10 10 -10 6 0 10 5 10 10 0 6 -4 10 -10 10 -5 0
-10 -4 -10 -10z"/>
<path d="M1410 1360 c0 -5 5 -10 10 -10 6 0 10 5 10 10 0 6 -4 10 -10 10 -5 0
-10 -4 -10 -10z"/>
<path d="M2584 1283 c3 -6 0 -14 -6 -16 -10 -4 -9 -8 2 -16 19 -13 28 16 9 33
-9 8 -10 8 -5 -1z"/>
<path d="M585 1220 c3 -5 8 -10 11 -10 2 0 4 5 4 10 0 6 -5 10 -11 10 -5 0 -7
-4 -4 -10z"/>
<path d="M2600 1203 c0 -27 15 -23 22 5 3 11 0 19 -8 19 -8 0 -14 -11 -14 -24z"/>
<path d="M2552 1190 c0 -19 2 -27 5 -17 2 9 2 25 0 35 -3 9 -5 1 -5 -18z"/>
<path d="M1000 1200 c0 -5 5 -10 10 -10 6 0 10 5 10 10 0 6 -4 10 -10 10 -5 0
-10 -4 -10 -10z"/>
<path d="M1060 1200 c-8 -5 -18 -6 -23 -3 -5 3 -6 -4 -3 -15 5 -15 -1 -25 -24
-42 -31 -22 -39 -40 -17 -40 15 -1 75 -60 60 -60 -6 0 -13 6 -16 13 -4 9 -8 9
-23 -1 -11 -6 -26 -15 -34 -18 -8 -3 -22 -9 -30 -14 -11 -5 -25 1 -45 21 -15
16 -32 29 -37 29 -14 0 -9 -32 7 -44 12 -10 12 -14 -3 -31 -9 -11 -30 -31 -47
-44 -16 -12 -23 -22 -15 -21 40 6 60 -1 60 -20 0 -17 -5 -19 -25 -14 -15 4
-25 2 -25 -5 0 -6 5 -11 10 -11 6 0 10 -7 10 -15 0 -12 7 -14 28 -9 38 9 44
14 38 30 -5 13 5 18 31 15 7 -1 23 3 35 10 20 11 20 13 5 24 -14 10 -15 14 -4
23 10 9 19 8 34 -3 17 -12 26 -11 71 10 30 14 52 31 52 40 0 8 5 15 10 15 6 0
10 13 10 29 0 16 5 42 10 57 13 33 6 42 -15 20 -21 -21 -23 -20 -45 7 -11 13
-17 31 -14 43 6 25 -6 36 -26 24z"/>
<path d="M2418 1088 c-10 -40 -22 -74 -27 -76 -5 -2 -7 -12 -4 -23 3 -11 -2
-28 -12 -39 -15 -16 -16 -25 -7 -43 17 -35 23 -90 13 -124 -6 -20 -6 -35 0
-38 5 -4 9 -2 9 3 0 5 9 12 19 15 17 4 18 12 14 71 -4 49 -2 75 10 99 39 82
48 115 45 167 -2 46 -6 55 -23 58 -17 2 -22 -8 -37 -70z"/>
<path d="M915 1122 c-19 -16 -30 -53 -16 -51 3 0 16 13 29 29 25 32 17 47 -13
22z"/>
<path d="M675 1110 c-55 -7 -105 -25 -106 -37 -3 -30 -10 -48 -27 -67 -10 -11
-19 -34 -20 -49 -3 -39 -7 -44 -58 -67 -35 -17 -44 -26 -44 -46 0 -23 -3 -25
-30 -19 -16 4 -84 7 -150 9 -78 1 -124 6 -132 14 -7 7 -22 12 -35 12 -12 0
-26 7 -31 17 -6 10 -16 14 -27 9 -15 -5 -15 -9 -4 -22 7 -9 23 -20 35 -25 33
-12 30 -67 -3 -82 -19 -9 -26 -8 -34 4 -6 10 -9 1 -9 -30 0 -41 1 -43 25 -39
14 3 28 1 31 -4 4 -6 10 -5 14 3 11 17 51 19 74 3 11 -7 30 -11 43 -8 14 4 23
2 23 -5 0 -6 -16 -11 -35 -11 -19 0 -35 5 -35 10 0 12 -34 13 -58 1 -9 -5 -30
-13 -47 -18 -20 -6 -31 -16 -33 -32 -4 -25 24 -52 45 -44 7 3 24 -2 37 -10 26
-17 38 -13 29 9 -3 8 2 17 11 20 16 6 46 -17 46 -36 0 -6 19 3 43 19 96 70
205 139 233 148 17 5 30 18 32 29 2 17 12 20 85 22 125 3 231 13 241 23 6 5
-9 9 -37 9 -37 0 -45 3 -41 15 8 20 -16 51 -26 34 -5 -6 -13 -8 -20 -4 -9 6
-6 12 12 21 21 11 27 23 32 71 4 32 9 66 12 76 7 23 -12 22 -38 -3 -26 -24
-40 -22 -44 5 -2 11 -10 25 -18 31 -23 16 -20 22 12 21 15 -1 61 0 102 2 72 3
74 3 45 16 -33 15 -44 16 -120 5z m39 -118 c10 -16 -22 -41 -59 -44 -44 -3
-54 -18 -29 -43 9 -9 18 -26 19 -39 2 -18 -4 -24 -41 -32 -49 -11 -56 -3 -21
27 20 18 21 19 2 17 -33 -5 -30 29 5 59 18 15 38 32 44 39 7 7 24 14 37 17 13
2 27 5 31 6 4 0 9 -2 12 -7z m-174 -162 c0 -5 -4 -10 -10 -10 -5 0 -10 5 -10
10 0 6 5 10 10 10 6 0 10 -4 10 -10z m-325 -40 c3 -5 -13 -19 -36 -31 -33 -17
-43 -18 -50 -8 -12 20 19 49 52 49 15 0 30 -4 34 -10z m75 1 c0 -5 -13 -11
-30 -13 -16 -3 -30 -1 -30 3 0 7 10 10 53 18 4 0 7 -3 7 -8z m118 -2 c15 0 20
-3 12 -6 -8 -2 -29 -11 -47 -19 -40 -18 -43 -18 -43 5 0 21 17 32 38 25 8 -2
26 -4 40 -5z m-293 -129 c-3 -5 -13 -10 -21 -10 -8 0 -12 5 -9 10 3 6 13 10
21 10 8 0 12 -4 9 -10z"/>
<path d="M2518 1065 c-3 -14 -1 -25 3 -25 5 0 9 11 9 25 0 14 -2 25 -4 25 -2
0 -6 -11 -8 -25z"/>
<path d="M760 1050 c0 -5 4 -10 9 -10 6 0 13 5 16 10 3 6 -1 10 -9 10 -9 0
-16 -4 -16 -10z"/>
<path d="M147 1020 c3 -12 -2 -29 -12 -40 -22 -25 -14 -35 20 -26 25 6 34 29
15 41 -5 3 -10 15 -10 26 0 10 -4 19 -9 19 -5 0 -7 -9 -4 -20z"/>
<path d="M236 1016 c21 -29 39 -29 39 0 0 13 -8 20 -29 22 l-28 4 18 -26z"/>
<path d="M2507 1008 c-6 -21 11 -44 23 -31 3 3 0 8 -6 10 -7 2 -10 13 -7 23 3
11 3 20 0 20 -2 0 -7 -10 -10 -22z"/>
<path d="M784 1005 c-3 -8 -3 -19 1 -25 11 -18 25 -11 25 15 0 27 -17 34 -26
10z"/>
<path d="M0 946 c0 -7 9 -16 20 -19 26 -7 26 5 0 21 -16 10 -20 10 -20 -2z"/>
<path d="M260 953 c-31 -13 -43 -33 -33 -56 l10 -22 7 23 c5 15 18 25 37 29
16 3 28 11 26 17 -4 13 -26 17 -47 9z"/>
<path d="M435 950 c3 -5 8 -10 11 -10 2 0 4 5 4 10 0 6 -5 10 -11 10 -5 0 -7
-4 -4 -10z"/>
<path d="M65 899 c-10 -15 3 -25 16 -12 7 7 7 13 1 17 -6 3 -14 1 -17 -5z"/>
<path d="M2610 878 c0 -19 2 -20 10 -8 13 19 13 30 0 30 -5 0 -10 -10 -10 -22z"/>
<path d="M2462 870 c0 -14 2 -19 5 -12 2 6 2 18 0 25 -3 6 -5 1 -5 -13z"/>
<path d="M2481 693 c-18 -62 -15 -64 37 -33 28 18 32 23 21 36 -7 8 -20 19
-30 25 -15 8 -20 3 -28 -28z"/>
<path d="M77 534 c-4 -4 -19 -7 -34 -8 -26 -1 -28 -4 -26 -39 2 -23 -1 -35 -7
-32 -6 3 -10 -3 -10 -14 0 -11 4 -22 9 -25 12 -8 26 12 42 59 8 22 20 40 28
40 8 0 16 6 19 13 4 13 -10 17 -21 6z"/>
<path d="M1874 424 c9 -8 16 -20 16 -25 0 -5 5 -9 10 -9 6 0 3 11 -6 25 -9 14
-21 25 -26 25 -5 0 -2 -7 6 -16z"/>
<path d="M1921 364 c-1 -12 6 -28 16 -35 15 -13 15 -12 6 6 -6 11 -13 27 -16
35 -4 10 -6 8 -6 -6z"/>
</g>
</svg>
